<svg width="294" height="242" viewBox="0 0 294 242" fill="none" xmlns="http://www.w3.org/2000/svg">
<path d="M242.854 3.88788C203.675 4.50492 42.2554 4.84053 1.88008 4.32733C-0.517334 4.29723 -0.699435 0.211245 1.78226 0.211245C43.4022 0.262414 187.279 -0.530705 242.776 0.662736C245.447 0.716915 244.722 3.85778 242.854 3.88788Z" fill="#043F6D"/>
<path d="M194.778 121.233C192.075 122.4 189.203 123.128 186.27 123.39C186.552 126.836 186.515 130.302 186.159 133.741C186.12 133.927 186.017 134.093 185.868 134.21C185.719 134.327 185.533 134.387 185.343 134.38C185.154 134.373 184.973 134.3 184.832 134.172C184.692 134.045 184.601 133.872 184.576 133.684C184.294 131.332 184.952 128.784 184.478 123.506C180.958 123.601 179.308 122.51 176.216 122.09C168.525 121.039 161.133 118.416 154.501 114.384C154.303 114.233 154.174 114.011 154.14 113.765C154.106 113.519 154.17 113.269 154.318 113.07C161.124 104.76 166.357 95.2788 169.761 85.0915C170.163 83.9402 171.495 82.3931 171.501 84.3752C171.517 89.4559 170.924 94.5337 170.924 99.622C170.924 108.856 171.17 118.735 180.166 121.056C185.684 122.475 190.818 120.675 194.233 119.763C195.044 119.539 195.646 120.813 194.778 121.233Z" fill="#043F6D"/>
<path d="M181.754 101.475C180.965 103.002 183.653 102.821 185.265 102.898C185.469 102.915 185.659 103.004 185.804 103.148C185.948 103.292 186.037 103.483 186.054 103.687C186.071 103.89 186.016 104.093 185.898 104.259C185.779 104.426 185.606 104.545 185.408 104.596C184.342 104.739 183.259 104.678 182.216 104.415C180.353 104.028 178.931 103.342 179.945 101.255C180.601 99.8458 181.346 98.4801 182.175 97.1658C182.277 97.0066 182.433 96.8899 182.615 96.8375C182.796 96.785 182.991 96.8004 183.162 96.8807C183.333 96.9611 183.469 97.1009 183.544 97.2741C183.62 97.4473 183.63 97.642 183.572 97.822C183.059 99.0837 182.452 100.305 181.754 101.475Z" fill="#043F6D"/>
<path d="M191.965 95.5918C191.983 96.558 192.056 98.0223 190.632 98.0599C189.485 98.0915 189.163 97.0772 189.169 95.7212C189.175 93.2786 191.907 92.5984 191.965 95.5918Z" fill="#043F6D"/>
<path d="M178.539 95.53C178.515 96.4541 178.122 97.3254 177.055 97.2818C176.165 97.2457 175.844 96.0417 175.87 95.2486C175.907 94.0777 176.276 93.4802 177.016 93.3177C178.153 93.0679 178.571 94.3712 178.539 95.53Z" fill="#043F6D"/>
<path d="M177.509 88.6372C176.912 88.5683 176.309 88.6674 175.766 88.9232C175.223 89.179 174.762 89.5814 174.435 90.085C173.611 91.304 172.729 90.3032 173.042 89.5808C173.444 88.7025 174.117 87.9763 174.962 87.5088C175.807 87.0412 176.78 86.857 177.737 86.9832C177.951 87.0197 178.143 87.1379 178.271 87.313C178.399 87.488 178.454 87.7061 178.425 87.9211C178.395 88.1361 178.283 88.331 178.112 88.4647C177.941 88.5984 177.724 88.6602 177.509 88.6372Z" fill="#043F6D"/>
<path d="M189.768 88.4295C189.58 88.4283 189.399 88.3603 189.256 88.2376C189.114 88.1149 189.02 87.9456 188.991 87.7599C188.962 87.5742 189 87.3842 189.098 87.224C189.196 87.0638 189.349 86.9438 189.527 86.8854C190.676 86.6391 191.875 86.8168 192.903 87.3855C193.931 87.9542 194.718 88.8756 195.12 89.9796C195.368 90.842 194.217 91.5493 193.78 90.5816C193.434 89.8373 192.856 89.2252 192.133 88.8372C191.409 88.4491 190.58 88.3061 189.768 88.4295Z" fill="#043F6D"/>
<path d="M182.598 109.57C183.245 111.027 184.394 112.204 185.835 112.886C187.276 113.569 188.914 113.712 190.451 113.289C192.037 112.777 193.369 111.683 194.179 110.227C194.989 108.771 195.217 107.062 194.816 105.445C194.632 104.692 193.958 104.43 193.148 105.068C189.76 107.738 187.253 108.155 183.25 108.221C182.6 108.232 182.219 108.814 182.598 109.57Z" fill="#043F6D"/>
<path d="M73.1239 138.554C73.482 139.233 72.4797 139.961 71.9199 139.457C68.6797 136.524 62.7471 132.384 61.0736 128.471C58.8161 123.203 60.0487 116.607 55.5819 112.345C55.4209 112.207 55.3191 112.013 55.2976 111.802C55.2761 111.591 55.3365 111.38 55.4664 111.213C55.5963 111.045 55.7856 110.934 55.9951 110.903C56.2047 110.871 56.4183 110.921 56.5918 111.043C61.5281 114.515 60.592 121.313 62.878 126.243C65.1957 131.235 70.5835 133.752 73.1239 138.554Z" fill="#043F6D"/>
<path d="M40.1093 130.867C35.5046 129.953 31.1976 127.914 27.5729 124.931C26.4095 123.906 27.8031 123.08 28.6519 123.653C32.2568 126.2 36.3825 127.915 40.7308 128.672C44.975 129.3 49.2957 129.189 53.502 128.344C54.5389 128.206 54.5163 129.723 53.803 130.15C50.5583 132.099 43.7513 131.669 40.1093 130.867Z" fill="#043F6D"/>
<path d="M20.9736 128.52C20.3295 127.815 21.4131 126.877 22.1204 127.389C26.9503 131.095 32.4959 133.759 38.4072 135.214C43.0244 136.268 41.7437 138.429 37.599 137.574C31.2485 136.364 25.4354 133.199 20.9736 128.52Z" fill="#043F6D"/>
<path d="M38.9128 145.012C33.4272 144.694 25.8301 142.166 21.7125 138.557C21.5677 138.425 21.4749 138.246 21.4507 138.051C21.4265 137.857 21.4726 137.66 21.5807 137.497C21.6887 137.333 21.8516 137.214 22.04 137.16C22.2284 137.106 22.4298 137.121 22.608 137.203C28.8671 140.27 32.2052 141.827 39.2003 142.696C43.2607 143.201 43.1418 145.257 38.9128 145.012Z" fill="#043F6D"/>
<path d="M63.1579 152.034C64.2611 152.787 63.0074 154.639 61.8832 153.974C55.9506 150.481 49.1948 152.62 42.7505 152.609C36.467 152.716 30.3114 150.828 25.168 147.217C24.426 146.661 25.2432 145.551 26.0273 145.91C31.9163 148.884 38.4575 150.333 45.0516 150.124C51.1422 149.756 57.743 148.347 63.1579 152.034Z" fill="#043F6D"/>
<path d="M291.474 241.02C231.237 241.753 59.7296 240.243 23.0956 239.816C20.7358 239.789 18.8636 237.125 23.0279 237.107C70.1334 236.865 221.324 236.922 291.386 237.567C294.145 237.585 294.153 240.987 291.474 241.02Z" fill="#F8B6B2"/>
<path d="M175.403 132.132C162.159 134.239 136.792 148.4 122.977 166.668C136.071 164.686 174.688 164.348 185.786 165.649C181.61 160.565 176.987 155.865 171.97 151.608C173.897 149.4 175.709 147.683 177.293 146.172C174.122 144.216 168.909 141.094 166.608 140.02C169.215 137.049 172.167 134.401 175.403 132.132Z" fill="#F8B6B2"/>
<path d="M204.36 146.851C206.058 148.543 207.506 150.469 208.661 152.57C204.019 155.231 195.014 160.213 189.58 165.988C194.769 166.668 198.158 169.186 199.964 176.824C200.741 180.1 201.812 185.357 202.875 191.258C212.707 189.109 222.702 187.788 232.754 187.307C230.991 182.791 228.633 178.529 225.743 174.636C225.123 173.815 226.273 172.774 226.957 173.57C230.448 177.576 233.148 182.207 234.917 187.217C239.42 186.951 243.936 187.015 248.43 187.408C249.454 187.524 249.466 189.055 248.406 189.029C233.23 188.535 218.052 189.965 203.236 193.285C204.748 201.912 206.172 211.551 206.619 218.301C229.946 218.074 267.79 229.6 273.655 215.696C286.79 184.556 246.897 135.409 218.511 131.106C220.907 134.422 222.585 138.202 223.437 142.204C220.328 143.283 208.439 146.113 204.36 146.851Z" fill="#F8B6B2"/>
<path d="M186.898 155.685C182.127 143.779 182.257 137.442 180.896 131.606C180.865 131.404 180.757 131.223 180.596 131.098C180.435 130.974 180.232 130.916 180.029 130.937C179.826 130.958 179.639 131.056 179.507 131.211C179.375 131.366 179.307 131.566 179.317 131.77C179.269 138.814 182.859 150.549 185.774 157.295C185.866 157.459 185.996 157.598 186.152 157.702C186.308 157.806 186.487 157.872 186.673 157.894C186.859 157.915 187.048 157.893 187.224 157.829C187.4 157.764 187.559 157.659 187.687 157.521C197.127 144.411 201.844 139.675 212.669 131.267C212.838 131.148 212.953 130.968 212.992 130.765C213.03 130.563 212.989 130.353 212.876 130.18C212.763 130.007 212.588 129.885 212.387 129.839C212.186 129.792 211.975 129.826 211.798 129.932C201.751 136.637 193.261 145.419 186.898 155.685Z" fill="#F8B6B2"/>
<path d="M110.143 168.027C100.857 162.366 85.1169 148.437 78.6636 139.626C72.1784 146.241 66.409 153.521 61.4513 161.347C73.1991 178.672 91.8035 197.362 103.462 202.792C102.108 197.016 101.763 181.05 102.108 175.954C102.453 170.858 106.293 168.82 110.143 168.027Z" fill="#F8B6B2"/>
<path d="M56.9349 167.764C59.8154 167.644 58.3345 165.624 57.1064 165.6C40.7023 165.278 23.1212 164.877 10.7534 165.07C11.709 93.6036 11.1371 48.5102 11.5284 8.24175C11.539 7.17473 9.93918 7.33877 9.89102 8.35463C8.32886 41.0922 9.28903 129.253 8.08506 164.826C8.04292 166.045 8.1272 166.823 10.7639 166.941C18.1488 167.272 25.3456 167.285 32.7726 167.413C39.5976 167.532 50.3205 168.041 56.9349 167.764Z" fill="#F8B6B2"/>
<path d="M236.655 96.8302C237.379 82.1567 237.153 67.2892 237.22 52.5841C237.259 43.8914 237.653 20.5523 237.555 9.09801C237.539 7.11446 235.493 8.24469 235.472 9.24851C235.077 28.6972 234.052 77.2596 234.795 96.8513C234.858 98.5007 236.582 98.4766 236.655 96.8302Z" fill="#F8B6B2"/>
<path d="M34.5334 51.9823C34.5334 47.2115 34.574 42.4438 34.5334 37.673C56.0214 37.5496 77.5229 37.4277 99.0078 37.0394C99.0259 41.2142 99.0078 45.389 99.0078 49.5638C78.4845 50.089 57.4977 50.8626 36.9128 51.2313C35.5869 51.2554 35.8021 53.2359 37.0843 53.2525C57.8695 53.5038 79.2927 52.1779 100.143 51.6376C100.418 51.609 100.672 51.4747 100.851 51.2629C101.03 51.0511 101.121 50.7782 101.103 50.5014C101.103 45.6268 101.086 40.7507 101.119 35.8761C101.09 35.5981 100.954 35.3423 100.74 35.1621C100.527 34.982 100.251 34.8916 99.9725 34.9099C77.7727 34.9235 55.5578 35.226 33.358 35.5224C33.0742 35.5518 32.8127 35.69 32.6286 35.9081C32.4446 36.1261 32.3521 36.407 32.3708 36.6918C32.4942 41.8388 32.756 46.9737 32.9336 52.1177C32.9592 53.1637 34.5319 53.0162 34.5334 51.9823Z" fill="#F8B6B2"/>
<path d="M33.2813 86.3813C55.7234 85.5054 78.8292 85.403 101.134 83.8665C101.298 83.8702 101.46 83.8376 101.609 83.7709C101.758 83.7042 101.89 83.6052 101.996 83.481C102.102 83.3568 102.179 83.2105 102.222 83.0528C102.264 82.8951 102.271 82.7299 102.242 82.5692C101.848 79.3877 101.452 76.2062 101.038 73.0277C100.865 71.7078 98.8844 72.1593 99.0289 73.4551C99.3299 76.2167 99.664 78.9768 99.992 81.7324C78.2031 82.6519 56.2215 83.2735 34.5259 83.9688C34.5259 79.654 34.5033 75.3333 34.6252 71.0261C56.5601 70.7988 78.1188 70.4436 100.295 70.6242C100.508 70.6278 100.715 70.5481 100.872 70.402C101.028 70.2558 101.121 70.0547 101.132 69.841C101.143 69.6274 101.07 69.4179 100.929 69.2568C100.788 69.0958 100.59 68.9957 100.377 68.9778C78.1158 67.9529 55.761 68.4044 33.4062 68.4496C33.2329 68.4402 33.0595 68.4653 32.896 68.5233C32.7324 68.5813 32.582 68.671 32.4533 68.7874C32.3246 68.9038 32.2202 69.0445 32.1461 69.2014C32.072 69.3583 32.0297 69.5284 32.0216 69.7017C32.2067 74.8381 32.1375 79.9927 32.1555 85.1352C32.1439 85.4486 32.2551 85.7541 32.4653 85.9869C32.6755 86.2196 32.9683 86.3611 33.2813 86.3813Z" fill="#F8B6B2"/>
<path d="M99.2877 116.52C88.5121 116.663 74.8034 116.449 63.7494 116.971C62.8238 117.015 62.8659 118.902 63.7734 118.917C73.7258 119.087 88.7875 118.595 100.293 118.837C101.565 118.864 101.623 117.633 101.474 116.718C100.731 112.227 100.691 107.647 101.356 103.144C101.386 102.981 101.38 102.814 101.338 102.654C101.295 102.494 101.217 102.346 101.11 102.221C101.003 102.095 100.869 101.995 100.718 101.928C100.567 101.86 100.403 101.828 100.237 101.833C78.343 102.35 56.4427 103.16 34.5499 103.511C34.2556 103.531 33.9805 103.664 33.7824 103.883C33.5843 104.101 33.4786 104.388 33.4874 104.683C33.4483 109.421 33.4573 114.164 33.4242 118.896C33.4448 119.208 33.5856 119.499 33.817 119.709C34.0483 119.919 34.3522 120.03 34.6643 120.02C40.9852 119.789 45.9621 119.823 52.2845 119.433C53.338 119.369 53.2492 117.468 52.2047 117.465C46.7302 117.452 41.2556 117.509 35.7825 117.636C35.7599 113.662 35.7554 109.687 35.7283 105.713C56.831 104.96 77.9502 104.629 99.0574 104.039C98.5636 108.19 98.6411 112.39 99.2877 116.52Z" fill="#F8B6B2"/>
<path d="M150.449 130.552C151.445 130.788 151.716 129.189 150.75 128.906C140.211 125.548 131.371 118.258 126.069 108.551C113.832 86.6957 121.403 58.0547 141.284 43.5257C158.892 30.6567 196.718 30.9186 208.914 51.9535C209.652 53.2252 211.567 52.5299 210.953 51.177C201.418 30.1601 162.716 27.1501 143.737 38.7384C121.39 52.3885 111.025 81.9099 122.096 106.105C127.664 118.278 138.006 127.605 150.449 130.552Z" fill="#F8B6B2"/>
<path d="M236.479 134.957C236.861 131.712 236.521 123.068 236.535 118.01C236.535 116.195 234.831 116.861 234.77 117.621C234.408 123.395 234.392 129.185 234.724 134.96C234.792 135.823 236.38 135.809 236.479 134.957Z" fill="#F8B6B2"/>
<path d="M241.876 223.967C232.893 222.914 214.264 221.759 202.167 221.559C202.167 214.614 195.524 174.905 191.297 171.584C187.249 168.402 110.447 167.809 107.276 173.841C103.107 181.781 109.997 230.973 113.802 232.271C119.992 234.378 237.644 234.028 242.777 233.626C245.461 233.423 245.843 224.429 241.876 223.967ZM130.984 176.321C126.523 176.788 122.255 177.405 117.806 178.056C113.955 178.621 113.683 179.427 113.264 183.124C112.734 187.512 112.48 191.93 112.503 196.351C112.503 197.291 111.135 197.538 111.01 196.548C110.434 191.475 110.472 186.351 111.124 181.288C111.555 177.965 112.78 176.472 116.091 175.796C120.986 174.807 125.983 174.415 130.973 174.628C131.176 174.658 131.361 174.759 131.496 174.913C131.63 175.068 131.705 175.265 131.706 175.47C131.707 175.675 131.635 175.873 131.503 176.029C131.37 176.186 131.186 176.289 130.984 176.321ZM150.648 209.926C147.465 210.528 144.017 208.806 142.775 203.951C141.696 199.737 143.678 196.557 147.179 195.662C155.562 193.519 158.624 208.401 150.648 209.926Z" fill="#043F6D"/>
<path d="M237.665 109.451C223.353 95.2696 231.885 75.3874 222.731 65.7662C221 63.9002 218.663 62.7095 216.136 62.4063C213.608 62.1031 211.056 62.7071 208.932 64.1107C201.881 52.6443 187.5 49.8692 175.256 53.6843C161.911 57.8425 157.13 74.1338 167.842 79.3771C173.456 82.1252 193.163 82.3584 199.325 81.165C199.818 86.2668 201.726 91.1294 204.834 95.2049C205.153 95.5886 205.599 96.1199 206.128 95.6563C206.701 95.1401 207.375 94.7485 208.107 94.5063C208.839 94.2641 209.614 94.1766 210.381 94.2493C211.149 94.322 211.893 94.5534 212.567 94.9287C213.24 95.3041 213.829 95.8153 214.294 96.4299C214.723 97.0628 215.022 97.774 215.174 98.5227C215.327 99.2714 215.33 100.043 215.184 100.793C215.037 101.543 214.744 102.256 214.321 102.893C213.898 103.529 213.354 104.076 212.719 104.501C210.878 105.719 209.566 105.541 207.504 105.437C206.858 105.406 206.738 105.946 206.694 106.439C206.058 113.609 205.352 121.79 206.446 128.921C206.474 129.119 206.578 129.298 206.737 129.42C206.895 129.542 207.095 129.598 207.293 129.575C207.492 129.552 207.674 129.453 207.8 129.298C207.927 129.143 207.988 128.945 207.971 128.746C207.986 126.814 207.913 124.881 207.85 122.947C217.926 124.075 230.684 118.181 237.695 111.443C238.806 110.388 238.011 109.794 237.665 109.451ZM183.456 60.3949C181 60.3508 178.569 60.9028 176.372 62.0037C173.933 63.1746 169.791 66.0852 170.069 69.1373C170.152 70.0523 168.837 70.6122 168.495 69.6685C166.847 65.1205 171.434 61.5673 174.493 59.8983C177.217 58.4118 180.269 57.6281 183.372 57.6182C187.342 57.6228 185.703 60.4897 183.456 60.3949Z" fill="#043F6D"/>
</svg>
