<svg width="245" height="278" viewBox="0 0 245 278" fill="none" xmlns="http://www.w3.org/2000/svg">
<path d="M79.5701 57.0165C79.453 55.7284 81.1656 56.3432 81.1363 58.0557C81.1363 60.3976 79.131 60.383 77.8723 59.2706C77.3453 58.8022 77.521 58.1582 77.5649 57.5727C77.5649 57.5727 77.8576 57.397 78.004 57.397C78.1503 57.397 78.2235 57.558 78.326 57.6605C78.4387 57.7635 78.5804 57.8294 78.7318 57.8494C78.8831 57.8694 79.037 57.8425 79.1726 57.7723C79.3082 57.7021 79.419 57.592 79.4901 57.4568C79.5612 57.3217 79.5891 57.168 79.5701 57.0165Z" fill="#D8E9FF"/>
<path d="M88.3523 66.7793C88.7475 66.428 88.528 66.3841 89.3184 66.9842C88.7632 67.7987 88.0331 68.4788 87.1814 68.9748C86.8594 69.1944 86.6545 68.9748 86.4788 68.7553C86.3032 68.5357 86.1861 68.726 88.3523 66.7793Z" fill="#D9D9D9"/>
<path d="M86.8887 65.0814C87.2253 64.7887 87.2546 64.9497 87.6644 65.3888C87.2257 66.2295 86.5485 66.922 85.7177 67.3794C85.2786 67.6282 85.1908 67.2477 85.0151 67.0428C84.8395 66.8378 84.6931 67.0135 86.8887 65.0814Z" fill="#D9D9D9"/>
<path d="M84.1954 96.6095C84.4239 96.6795 84.6338 96.7995 84.8102 96.9608C82.7795 97.7462 80.5734 97.9638 78.4284 97.5902C77.7551 97.5902 77.638 98.1903 78.2235 98.5562C82.4536 101.22 78.3992 97.1657 84.7662 107.617C81.8388 109.373 81.8389 109.549 81.6339 109.08C81.6339 109.08 79.5555 105.26 78.2089 102.464C75.8377 97.5316 73.2909 89.5399 73.3933 87.8273C74.1398 88.3689 79.9214 94.8531 84.1954 96.6095Z" fill="#D9D9D9"/>
<path d="M110.82 98.9368C110.976 101.38 110.591 103.827 109.693 106.104C108.795 108.381 107.406 110.432 105.624 112.11C104.951 112.769 103.458 114.496 102.697 113.925C101.511 113.105 100.457 113.925 100.603 113.296C100.852 112.095 99.5057 111.978 100.384 111.378C103.136 109.519 103.516 109.475 105.038 106.987C106.321 104.63 107.01 101.996 107.046 99.3135C107.082 96.6304 106.463 93.9791 105.243 91.5891C101.101 82.924 87.035 70.5264 87.9717 69.8092C91.47 67.0721 87.8253 66.2378 99.1983 78.0645C105.682 85.0024 109.854 90.1839 110.82 98.9368Z" fill="#D9D9D9"/>
<path d="M86.0544 63.4714C86.3764 63.9983 86.0544 64.1447 84.3858 65.6084C84.0052 65.945 83.8295 65.784 82.5269 64.6131C82.0438 64.174 79.5995 64.7448 77.6674 64.2764C76.372 64.0657 75.1759 63.4525 74.2485 62.5238C73.3212 61.5952 72.7097 60.3982 72.5008 59.1025C72.2919 57.8068 72.4961 56.4783 73.0845 55.3052C73.673 54.1321 74.6158 53.1741 75.7792 52.5668C76.3208 52.2887 76.3354 52.2887 76.5257 52.8596C77.3307 55.3186 77.4039 55.421 76.9794 55.787C74.3009 58.3631 77.682 62.9737 81.4584 60.7343C82.9221 59.8268 83.5807 54.8795 80.141 54.7624C79.4238 54.7624 78.9262 54.5135 78.8237 53.6792C78.692 52.3912 77.6967 51.5862 78.8237 51.2641C82.0878 50.4006 86.1422 52.9767 86.4349 57.558C85.6299 61.4954 85.1762 61.993 86.0544 63.4714Z" fill="#D9D9D9"/>
<path d="M143.973 96.5363C144.632 97.6048 160.513 125.737 159.737 125.576C156.605 124.888 156.253 124.112 152.843 121.522C151.555 120.526 149.667 122.092 150.106 124.625C151.379 131.943 161.523 128.181 154.76 137.081C154.57 137.33 153.619 137.081 152.945 137.081C151.145 137.271 151.613 138.91 149.33 140.93C148.787 141.68 148.4 142.532 148.194 143.435C147.988 144.338 147.966 145.273 148.13 146.185C148.701 147.971 153.663 144.721 114.055 166.955C101.335 174.098 102.916 173.966 93.7534 178.664C92.6849 179.206 92.9044 178.664 89.0988 172.078C56.7218 115.813 56.5315 127.537 67.319 120.468C74.2423 115.93 79.8336 112.344 105.302 98.2195C106.619 97.4877 105.565 105.538 102.038 108.714C101.584 109.139 101.892 108.714 100.911 107.251C100.501 106.606 99.8277 107.573 100.033 107.895C101.262 109.856 97.9542 110.295 98.9934 112.593C99.3008 113.281 98.7007 115.316 100.662 115.037C100.986 114.972 101.321 114.981 101.64 115.065C101.96 115.149 102.256 115.305 102.506 115.52C103.97 116.691 111.523 110.602 112.108 99.8442C112.313 96.1996 110.864 95.175 112.108 94.5603C117.699 91.6329 131.956 83.1727 133.464 82.2798C136.347 80.5819 135.586 83.1141 143.973 96.5363ZM141.968 117.965C144.061 117.35 143.343 116.179 143.3 115.594C143.28 115.245 143.137 114.914 142.895 114.662C142.654 114.41 142.33 114.252 141.982 114.218C140.065 113.925 137.05 111.627 134.298 112.388C133.273 112.681 134.576 112.125 135.762 105.07C136.084 103.05 132.512 102.611 132.073 105.07C131.785 107.222 131.264 109.337 130.521 111.378L130.214 110.998C127.814 106.841 128.355 107.148 126.35 107.324C126.159 107.332 125.977 107.407 125.835 107.535C125.694 107.663 125.601 107.837 125.574 108.026C125.238 109.212 125.574 109.973 127.038 112.622C131.853 121.287 132.205 123.82 134.839 121.99C135.483 121.551 135.235 120.907 135.279 120.38C135.352 119.487 135.015 119.37 133.464 116.457C133.229 116.018 135.074 115.74 136.098 116.164C138.85 117.233 140.489 118.404 141.968 117.979V117.965ZM138.718 143.375C139.831 142.613 139.582 140.067 137.986 140.169C136.391 140.272 136.201 140.608 132.234 143.55C131.034 144.428 131.531 144.926 128.897 141.647C128.721 141.428 128.663 141.252 129.029 141.062C129.863 140.637 134.166 138.135 134.43 136.671C134.43 136.439 134.401 136.207 134.342 135.983C134.342 135.8 134.303 135.619 134.226 135.453C134.149 135.287 134.038 135.14 133.898 135.022C133.759 134.903 133.595 134.817 133.419 134.768C133.243 134.719 133.058 134.709 132.878 134.739C130.507 134.739 127.023 139.408 126.145 138.237C124.916 136.481 124.374 135.983 124.681 135.851C126.249 135.13 127.724 134.22 129.072 133.143C131.795 131.592 130.975 131.972 130.961 130.626C130.928 130.424 130.854 130.232 130.743 130.06C130.632 129.889 130.487 129.743 130.316 129.631C130.145 129.519 129.952 129.445 129.751 129.412C129.549 129.379 129.343 129.389 129.146 129.44C127.723 129.829 126.432 130.598 125.413 131.665C122.632 133.348 121.432 133.67 121.11 135.588C120.817 137.256 121.666 137.417 122.574 138.925C124.314 141.606 126.231 144.168 128.311 146.595C130.082 149.112 133.142 147.18 138.718 143.375ZM119.69 127.991C123.481 130.201 129.336 127.025 129.336 124.054C129.336 119.824 125.911 121.829 125.882 122.122C125.767 122.572 125.556 122.991 125.261 123.35C124.966 123.709 124.596 123.999 124.177 124.199C123.758 124.399 123.3 124.504 122.836 124.506C122.371 124.509 121.912 124.41 121.49 124.215C120.278 123.649 119.296 122.686 118.708 121.485C118.119 120.284 117.96 118.918 118.256 117.614C118.563 116.633 118.827 117.233 119.719 117.028C121.388 116.677 121.095 114.671 120.378 113.91C115.489 108.787 110.044 122.429 119.646 127.962L119.69 127.991ZM125.838 150.152C125.984 148.117 125.325 148.205 123.759 146.112C117.685 137.959 118.622 138.969 117.465 137.856C117.217 137.707 116.939 137.612 116.651 137.578C116.363 137.544 116.071 137.571 115.794 137.658C115.517 137.745 115.262 137.89 115.046 138.084C114.829 138.277 114.656 138.514 114.538 138.779C114.538 139.13 114.26 139.467 114.157 139.818C112.694 144.633 112.928 144.75 112.474 144.765C105.404 145.131 108.727 144.399 104.687 145.029C103.663 145.19 103.458 146.99 104.175 147.956C109.664 156.006 109.664 158.978 111.947 157.865C114.231 156.753 107.395 148.117 108.727 148.395C109.848 148.556 110.987 148.556 112.108 148.395C116.265 148.132 114.523 148.132 116.733 142.672C118.592 144.443 120.7 148.527 123.291 150.825C123.494 150.97 123.727 151.067 123.972 151.11C124.218 151.153 124.47 151.14 124.71 151.073C124.951 151.005 125.173 150.885 125.36 150.72C125.547 150.556 125.696 150.352 125.794 150.122L125.838 150.152ZM112.811 132.909C113 133.264 113.295 133.55 113.656 133.728C114.016 133.905 114.423 133.965 114.82 133.899C115.216 133.833 115.581 133.644 115.864 133.358C116.147 133.073 116.334 132.706 116.397 132.309C115.226 128.372 111.552 124.229 107.995 120.16C107.366 119.443 105.785 119.443 105.39 120.16C104.453 121.99 105.346 121.785 112.767 132.88L112.811 132.909ZM111.552 135.968C112.211 135.193 111.552 132.324 109.591 132.953C107.629 133.582 107.688 133.773 104.365 135.983C103.692 136.422 104.087 136.261 102.433 133.685C100.955 131.333 99.3273 129.079 97.559 126.937C96.0953 125.474 94.4706 126.293 94.4706 127.274C94.4706 128.928 95.2171 128.943 96.8272 131.46C103.794 142.379 100.852 143.17 109.722 137.491C110.41 137.091 111.016 136.564 111.508 135.939L111.552 135.968ZM98.7153 142.935C99.0125 142.585 99.2122 142.162 99.2944 141.71C99.3766 141.258 99.3384 140.792 99.1837 140.359C98.6421 138.339 97.1053 139.159 96.8125 139.188C95.0268 139.335 95.8465 140.755 93.2118 142.789C92.58 143.014 91.9095 143.109 91.2401 143.071C90.5707 143.032 89.9158 142.859 89.3141 142.563C88.7124 142.267 88.1762 141.853 87.737 141.347C87.2978 140.84 86.9645 140.251 86.7569 139.613C85.8201 137.154 87.4741 133.978 88.2206 134.519C88.4265 134.619 88.6511 134.675 88.8799 134.683C89.1086 134.691 89.3365 134.651 89.5489 134.565C89.7612 134.48 89.9533 134.351 90.1127 134.187C90.2722 134.022 90.3955 133.826 90.4747 133.612C90.8845 131.475 88.3523 129.352 85.3078 131.445C82.2634 133.539 81.3705 140.696 85.4689 144.853C86.2201 145.645 87.1226 146.279 88.1229 146.716C89.1232 147.153 90.2011 147.386 91.2927 147.399C92.3844 147.413 93.4677 147.208 94.4786 146.795C95.4896 146.383 96.4076 145.772 97.1784 144.999C97.7639 144.341 98.1298 143.55 98.6714 142.906L98.7153 142.935Z" fill="#FFF59E"/>
<path d="M186.332 159.051C185.322 159.227 175.603 157.704 173.876 157.587C162.796 156.885 159.327 157.836 142.26 160.895C135.381 162.139 130.946 162.9 123.686 166.662C118.417 169.399 114.904 171.244 112.518 174.347C111.542 175.588 110.984 177.105 110.924 178.683C110.863 180.26 111.303 181.817 112.181 183.129C116.192 189.115 126.218 188.647 126.613 189.657C128.253 193.726 125.15 194.224 121.549 194.78C120.964 194.868 120.334 192.57 118.446 193.17C115.738 194.048 114.904 193.419 113.952 193.872C111.64 194.985 109.664 195.775 110.103 198.746C110.366 200.547 111.845 200.517 111.567 201.249C111.308 201.941 111.219 202.684 111.305 203.417C111.392 204.15 111.652 204.852 112.064 205.465C112.255 205.816 113.191 206.358 113.06 206.504C112.372 207.353 112.694 208.29 112.796 209.212C113.03 211.261 114.596 211.159 114.567 211.92C114.479 214.013 115.709 214.671 117.626 215.681C119.544 216.691 121.812 215.681 122.954 216.135C124.842 216.852 133.493 216.721 135.732 213.822C136.083 213.218 136.587 212.717 137.194 212.37C137.8 212.023 138.488 211.842 139.187 211.847C139.772 211.847 139.509 212.066 140.05 213.998C140.445 215.359 141.104 215.769 145.802 215.462C154.087 214.935 152.755 218.272 152.843 198.995C152.83 197.274 152.477 195.573 151.804 193.989C151.174 192.438 149.359 193.023 143.504 192.906C141.924 192.906 140.021 192.687 139.465 194.282C138.733 196.404 138.835 196.434 138.411 196.522C136.654 196.902 134.532 196.404 134.371 194.589C134.384 192.744 133.827 190.939 132.776 189.423C132.219 188.588 131.766 189.086 142.685 186.729C146.798 185.851 148.54 184.841 152.682 186.568C162.386 190.608 165.065 192.291 173.174 193.097C173.481 193.097 173.583 193.228 173.569 193.536C172.456 208.714 173.261 207.748 172.427 208.173C131.444 230.787 122.281 239.481 117.348 234.622C113.118 230.45 107.307 219.736 106.678 218.609C72.2224 158.597 65.1673 147.107 50.6474 120.951C47.3688 115.184 47.2809 115.725 48.4226 115.564C50.0473 115.345 50.6767 117.028 53.6188 116.882C55.0825 116.882 55.8436 116.677 61.5227 114.452C62.9864 113.852 63.2645 112.842 64.9331 112.417C67.7581 111.686 70.6123 108.656 69.3242 106.036C68.8998 105.128 70.5537 104.836 69.617 102.113C69.5576 101.761 69.427 101.425 69.2332 101.126C69.0394 100.826 68.7865 100.57 68.4899 100.371C68.0362 100.137 70.3927 98.0586 67.5824 94.9116C67.0994 94.3701 69.2218 92.1306 66.5432 90.0082C65.6517 89.5218 64.6609 89.2452 63.6463 89.1995C62.6317 89.1539 61.62 89.3404 60.6884 89.7448C58.5953 90.6376 56.5754 89.8472 56.1217 92.6722C56.1217 92.9064 56.1217 93.0674 55.8143 93.1406C45.3635 96.068 52.1843 89.4081 46.3295 84.6511C45.8849 84.27 45.352 84.0061 44.7794 83.8834C44.2068 83.7607 43.6126 83.7831 43.0509 83.9485C40.9431 84.5779 42.5239 86.6856 43.3436 90.301C43.9144 92.8332 42.6264 94.0334 43.8998 97.4731C44.8951 100.137 43.3436 100.81 40.6943 101.864C40.1527 102.098 40.021 102.025 39.7429 101.528C29.2335 82.7337 31.0924 86.8027 30.4191 85.2659C29.0872 82.2214 22.8225 75.8543 33.0684 68.3016C37.4595 65.0815 72.5151 47.3268 74.052 46.5803C74.7107 46.2437 74.5496 45.8631 75.8377 50.2249C76.1743 51.3959 72.1638 51.9521 71.2563 56.5627C70.2317 61.7881 74.7106 66.5598 80.8143 65.6084C82.1755 65.3888 80.8143 66.7501 82.9659 67.0721C84.6931 67.3795 83.5368 68.5358 84.6053 68.6968C85.9226 68.8139 85.0883 70.4093 86.186 70.3947C86.4349 70.3947 86.186 70.3947 96.4319 81.6652C101.95 87.6956 102.082 87.52 105.214 94.4872C105.39 94.916 105.494 95.371 105.521 95.8338C105.521 95.9801 86.2739 107.382 85.7616 106.475C85.2493 105.567 84.2979 104.309 83.7417 103.182C83.1855 102.054 82.3951 100.547 81.6925 99.2442C81.3119 98.5123 82.1901 99.2442 84.9712 98.1464C86.1421 97.6927 87.1667 97.034 86.23 96.1851C84.8687 94.9556 83.6685 95.4971 79.5409 91.7061C75.1498 87.6956 72.4566 84.6804 72.3395 86.832C71.8711 94.5018 80.6533 109.71 80.6679 109.71C81.0924 110.544 59.898 121.771 58.4197 123.922C57.9074 124.669 63.9964 134.168 70.1293 143.887C75.9841 153.035 80.3752 161.451 91.7335 180.04C93.285 182.573 91.4115 181.372 145.173 151.366C150.208 148.556 149.828 148.439 150.662 148.527C151.116 148.527 151.672 148.337 152.038 148.527C152.404 148.717 152.404 149.332 152.696 149.654C155.36 152.581 156.868 150.84 157 151.527C157.19 152.64 158.141 153.079 158.917 153.679C159.27 153.915 159.671 154.071 160.09 154.137C160.51 154.203 160.939 154.176 161.347 154.06C162.24 153.913 162.591 155.801 165.094 155.143C167.597 154.484 167.612 154.631 169.617 152.215C171.081 150.503 171.388 151.454 173.408 149.025C174.879 147.502 176.212 145.852 177.389 144.092C177.638 143.697 177.74 143.667 178.604 145.468C180.565 149.434 186.318 159.022 186.332 159.051ZM51.8477 68.1552C54.0871 71.0826 53.8383 68.4333 53.6919 62.5785C53.6919 61.6857 52.843 61.6125 52.2282 62.5785C51.0719 64.4082 50.6621 65.2132 49.3008 67.2185C49.0813 67.5405 49.1398 68.1552 49.9595 68.0235C50.5596 67.965 51.3207 67.4527 51.8477 68.1552ZM46.5637 71.4486C47.4566 71.5803 47.6761 70.7899 47.6469 70.1312C47.6176 69.4726 46.0807 66.5598 44.4414 67.3941C44.0315 67.599 43.8998 68.4333 43.9876 68.77C44.1031 69.4216 44.4096 70.0241 44.8683 70.501C45.327 70.978 45.9172 71.3078 46.5637 71.4486ZM43.3729 73.2782C44.2657 73.3953 44.4853 72.6049 44.456 71.9608C44.4267 71.3168 42.8898 68.3894 41.2212 69.2091C40.7968 69.414 40.6943 70.2483 40.7675 70.6728C40.9015 71.3133 41.2194 71.9008 41.6821 72.3636C42.1448 72.8263 42.7324 73.1441 43.3729 73.2782ZM41.0749 74.5809C41.0922 74.4646 41.0864 74.346 41.0579 74.232C41.0293 74.1179 40.9786 74.0106 40.9086 73.9161C40.8386 73.8216 40.7507 73.7419 40.6499 73.6814C40.5491 73.6209 40.4373 73.5809 40.3211 73.5636C40.2048 73.5463 40.0862 73.5521 39.9721 73.5806C39.8581 73.6091 39.7508 73.6598 39.6563 73.7298C39.5618 73.7998 39.4821 73.8877 39.4216 73.9885C39.3611 74.0894 39.3211 74.2011 39.3038 74.3174C39.0842 75.6494 40.9578 76.2495 41.0749 74.5809ZM40.0503 71.7998C40.0503 70.8338 38.1035 70.3361 38.0743 71.7267C38.0011 72.8391 39.9478 73.2635 40.0503 71.7998ZM36.8009 76.8642C36.713 77.3912 38.2646 78.3279 38.2646 75.6786C38.2646 74.01 36.9472 74.859 36.8009 74.0832C36.7519 73.7167 36.6431 73.3607 36.4788 73.0293C36.3701 72.8646 36.2292 72.7235 36.0646 72.6146C35.8999 72.5058 35.715 72.4313 35.5208 72.3958C35.3266 72.3602 35.1273 72.3643 34.9347 72.4078C34.7422 72.4513 34.5604 72.5332 34.4004 72.6488C34.1984 72.9227 34.0628 73.2398 34.0044 73.5751C33.9459 73.9105 33.9663 74.2548 34.0637 74.5809C34.1516 74.6833 34.4004 74.9029 34.5321 74.698C34.6639 74.493 34.8981 73.8344 35.1322 73.9222C35.3081 73.994 35.4522 74.1267 35.5382 74.296C35.6242 74.4654 35.6464 74.66 35.6006 74.8443C35.6006 75.2249 35.3079 75.3859 35.5128 75.6347C35.7177 75.8836 36.3032 75.3127 36.6252 75.7225C36.9472 76.1324 36.8448 76.3373 36.757 76.8642H36.8009ZM33.5661 78.8841C34.4589 79.0159 34.6785 78.2255 34.6492 77.5668C34.6199 76.9081 33.0831 74.01 31.4144 74.8297C30.99 75.0346 30.8729 75.8689 30.9607 76.2202C31.0796 76.8664 31.3857 77.4635 31.8411 77.9371C32.2965 78.4107 32.8811 78.74 33.5222 78.8841H33.5661Z" fill="#D8E9FF"/>
<path d="M172.764 210.705C172.764 213.135 173.276 213.281 172.5 213.705C171.329 214.32 141.353 231.548 134.81 235.119C111.991 247.59 118.417 248.951 94.0168 207.836C91.953 204.382 65.6796 156.606 59.0637 146.214C43.973 122.341 35.1322 103.855 29.6433 95.3214C29.5409 95.3214 25.2523 88.4421 25.2523 86.8905C25.2667 86.8279 25.2667 86.7629 25.2523 86.7003C23.9057 84.534 25.6621 79.7916 26.0427 80.6698C28.3114 85.866 28.2528 85.5878 37.9864 102.098C39.0842 103.957 46.3295 117.35 51.1597 125.722C58.566 138.588 59.8394 138.442 78.7065 172.414C80.1849 175.254 88.3523 188.749 96.549 203.386C101.379 211.949 105.99 221.565 110.015 227.859C111.625 230.362 112.942 232.104 114.172 233.714C117.934 238.735 120.378 238.105 122.735 237.417C127.126 236.085 137.372 230.187 172.325 210.383C172.647 210.207 172.749 210.251 172.764 210.705Z" fill="#D9D9D9"/>
<path d="M134.752 69.5311C134.752 69.5311 168.417 125.576 167.934 126.293C166.807 128.079 164.596 129.221 163.542 127.757C160.352 123.366 162.928 125.84 146.71 97.9415C135.103 77.9766 136.025 79.5721 134.678 80.1722C133.332 80.7723 111.61 92.8917 111.581 92.9063C110.498 93.5504 111.581 91.4426 104.965 82.8654C102.375 79.4989 97.4272 74.5369 93.2557 69.9117C91.9237 68.448 91.0601 67.1453 89.9477 66.0036C88.8353 64.8619 89.494 64.7448 88.8207 64.5399C87.8986 64.2471 88.0742 63.8666 87.9864 63.0762C87.8985 62.2858 86.9911 62.9298 86.8593 62.52C86.7276 62.1101 86.508 61.9638 86.6544 61.5393C87.0231 60.5487 87.2927 59.5239 87.4594 58.4802C87.7196 56.6714 87.3139 54.8296 86.3177 53.2976C85.3214 51.7656 83.8026 50.6476 82.0438 50.1517C78.7212 49.332 78.1064 50.9275 77.6527 49.3467C77.4477 48.7319 76.8623 46.712 76.8623 46.6388C76.8623 45.2922 73.9349 46.6388 85.9226 40.5059C113.089 26.5715 110.03 26.3959 126.569 54.6014C126.774 54.9526 126.774 55.1429 126.379 55.421C121.198 59.0217 122.442 54.5135 118.226 52.4936C115.826 51.3959 114.918 49.7858 112.855 47.1365C110.791 44.4872 106.912 50.2981 111.552 54.7038C113.221 56.2993 114.187 56.6066 114.362 58.3338C114.538 60.061 112.196 61.671 110.952 62.7249C110.718 62.9005 109.986 62.4614 109.4 62.3443C107.468 61.9638 107.658 63.5738 104.702 65.2717C103.803 66.1621 103.074 67.2086 102.55 68.3601C102.352 68.8483 102.266 69.3751 102.301 69.9009C102.336 70.4267 102.489 70.9378 102.75 71.3958C103.01 71.8537 103.372 72.2466 103.806 72.5447C104.24 72.8429 104.737 73.0386 105.258 73.1171C106.268 73.2196 104.863 74.7565 108.273 76.8349C108.654 77.0691 109.737 76.9813 109.737 77.318C109.864 78.2393 110.302 79.0898 110.978 79.7286C111.654 80.3673 112.528 80.7562 113.455 80.8308C114.099 80.8308 114.157 82.7922 116.909 82.7776C117.784 82.8728 118.669 82.7739 119.501 82.488C120.334 82.2022 121.093 81.7363 121.725 81.1236C123.481 79.7623 123.832 80.5966 125.413 79.4696C131.517 75.0785 132.102 75.503 133.273 70.1166C133.314 69.959 133.373 69.8067 133.449 69.6628C133.917 68.6236 134.195 68.5943 134.752 69.5311ZM110.44 38.1933C111.684 37.5346 110.791 36.9638 109.532 35.1927C109.093 34.5633 109.532 34.4755 105.39 36.6564C103.648 37.5639 102.975 37.7835 103.267 38.3689C103.742 39.3524 104.509 40.1652 105.463 40.6962C106.429 40.2718 110.41 38.2079 110.44 38.1933ZM100.779 43.8432C102.155 43.8432 102.243 42.9211 101.438 41.8379C99.5935 39.1886 99.5789 38.9105 98.6567 39.013C97.7346 39.1154 97.9102 40.6816 98.4079 41.3988C100.062 43.6968 100.311 43.8432 100.779 43.8432ZM98.5982 45.0873C99.4764 44.5311 97.5004 41.2232 96.2416 41.8672C94.9828 42.5112 96.5051 44.3262 97.4711 45.1605C97.6443 45.2639 97.8448 45.3123 98.046 45.2993C98.2473 45.2862 98.4399 45.2123 98.5982 45.0873ZM98.2762 45.4386C98.1591 45.3508 98.2762 45.3508 98.0859 45.4386C98.1298 45.5264 98.0859 45.5118 98.203 45.4386H98.2762ZM94.4559 45.6143C94.4559 46.9023 96.4026 47.4 96.388 45.9216C96.3734 44.4433 94.3388 44.2677 94.3827 45.6143H94.4559Z" fill="#D8E9FF"/>
<path d="M78.7212 183.846C79.3066 184.607 90.943 206.284 90.9138 206.255C76.9354 199.171 70.9782 200.532 62.9864 189.393C60.059 185.222 63.367 179.411 69.8072 180.26C79.5701 181.548 76.7598 181.27 78.7212 183.846Z" fill="#FFC6A6"/>
<path d="M57.761 147.766C73.73 173.834 70.4513 169.37 68.0947 167.877C57.2341 160.983 58.9466 164.452 47.2224 154.572C43.8852 151.747 41.3676 148.849 41.2798 144.107C41.2798 142.321 42.1726 141.384 43.5046 140.169C44.1925 139.554 47.0029 139.613 47.8957 139.642C49.6609 139.929 51.3956 140.38 53.0772 140.989C54.2042 141.282 54.014 141.662 57.761 147.766Z" fill="#FFC6A6"/>
<path d="M112.372 180.406C111.684 176.191 112.108 173.746 119.69 170.16C129.848 165.33 134.429 162.461 137.254 162.33C140.079 162.198 153.282 159.256 155.068 159.256C156.853 159.256 174.432 158.48 177.901 159.007C181.37 159.534 187.898 160.032 187.898 160.032L159.825 110.412C159.825 110.412 174.564 120.922 177.257 123.585C179.95 126.249 188.279 133.583 190.328 135.763C192.377 137.944 201.877 147.18 205.331 157.046C208.156 162.051 214.303 169.619 216.484 173.849C218.793 179.214 220.387 184.858 221.227 190.637C221.227 190.637 225.457 212.3 226.745 216.984C228.033 221.668 231.487 240.579 232 245.951C232.512 251.322 233.463 257.499 235.073 261.349C236.683 265.198 243.153 275.576 243.153 275.576C234.795 275.913 170.144 276.615 168.285 276.469C168.285 276.469 164.172 266.34 163.147 265.067C162.123 263.793 153.282 262.373 151.35 261.349C149.418 260.324 140.592 250.956 139.304 249.551C138.016 248.146 129.175 239.305 129.175 239.305L173.92 213.925C173.92 213.925 173.92 195.072 173.788 192.248C170.067 191.461 166.388 190.484 162.767 189.32C159.429 188.032 149.432 184.065 147.251 184.446C145.071 184.827 133.273 187.271 130.331 187.52C127.389 187.769 113.645 188.354 112.372 180.406Z" fill="#FFC6A6"/>
<path d="M140.343 194.809C140.343 194.809 139.494 192.804 143.095 193.433C143.095 193.433 147.413 193.521 148.569 193.521C149.725 193.521 151.833 194.033 151.965 195.541C152.199 198.029 151.965 203.606 151.965 212.549C151.965 213.339 152.052 214.481 149.535 214.569C147.017 214.657 142.216 214.759 142.216 214.759C142.216 214.759 140.606 215.769 141.075 212.505C141.777 207.543 140.782 198.995 140.343 194.809Z" fill="#BED4FC"/>
<path d="M241.689 49.9907C234.766 53.9427 236.113 59.4023 226.54 57.3092C222.251 56.3871 221.256 56.2407 219.222 57.558C217.717 58.5025 216.323 59.612 215.065 60.866C212.489 63.9251 212.503 64.6716 211.288 65.0522C210.073 65.4327 208.2 64.6131 206.722 64.452C186.142 62.1248 192.085 77.3619 182.585 76.5422C181.141 76.2387 179.67 76.0866 178.194 76.0884C174.023 76.9667 171.666 78.7817 170.744 83.0703C170.612 83.685 170.92 83.9046 171.52 83.8753C172.983 83.8753 172.178 80.0843 176.745 78.5475C178.219 78.0029 179.838 78.0029 181.312 78.5475C183.225 78.9794 185.229 78.7212 186.97 77.8186C188.711 76.916 190.076 75.427 190.826 73.6148C196.461 62.198 207.98 68.0674 211.318 67.4087C211.937 67.3426 212.532 67.1303 213.054 66.7893C213.576 66.4483 214.009 65.9884 214.318 65.4474C215.771 63.2669 217.641 61.3963 219.822 59.9439C221.739 58.6851 222.354 58.7583 224.828 59.2852C235.63 61.6125 234.371 58.8314 242.158 52.4497C242.655 52.0399 243.9 52.8156 244.031 51.2495C244.134 49.9322 242.626 49.4638 241.689 49.9907Z" fill="#000001"/>
<path d="M96.7686 139.159C94.9829 139.32 95.8025 140.725 93.1679 142.76C92.536 142.984 91.8656 143.08 91.1962 143.041C90.5267 143.002 89.8719 142.83 89.2702 142.534C88.6685 142.238 88.1323 141.824 87.6931 141.318C87.2538 140.811 86.9206 140.221 86.713 139.584C85.7762 137.125 87.4302 133.948 88.1767 134.49C88.3826 134.59 88.6072 134.646 88.8359 134.654C89.0647 134.662 89.2926 134.621 89.5049 134.536C89.7173 134.451 89.9094 134.322 90.0688 134.157C90.2283 133.993 90.3516 133.797 90.4308 133.583C90.8406 131.446 88.3084 129.323 85.2639 131.416C82.2194 133.509 81.3266 140.667 85.4249 144.824C86.1762 145.616 87.0787 146.249 88.079 146.687C89.0793 147.124 90.1572 147.356 91.2488 147.37C92.3405 147.384 93.4238 147.178 94.4347 146.766C95.4456 146.354 96.3637 145.743 97.1345 144.97C97.6907 144.341 98.0566 143.506 98.5982 142.906C98.8954 142.556 99.0951 142.133 99.1773 141.681C99.2595 141.229 99.2213 140.763 99.0666 140.33C98.5982 138.31 97.1345 139.13 96.7686 139.159Z" fill="#000001"/>
<path d="M111.508 135.939C112.167 135.163 111.508 132.294 109.547 132.924C107.585 133.553 107.644 133.744 104.321 135.954C103.648 136.393 104.043 136.232 102.389 133.656C100.911 131.304 99.2834 129.05 97.515 126.908C96.0513 125.444 94.4266 126.279 94.4266 127.245C94.4266 128.899 95.1731 128.913 96.7832 131.431C103.75 142.35 100.808 143.14 109.678 137.461C110.379 137.075 111 136.558 111.508 135.939Z" fill="#000001"/>
<path d="M243.109 118.023C241.645 117.409 239.523 117.526 237.254 116.852C233.054 115.652 231.151 113.135 227.008 113.559C224.766 114.016 222.489 114.285 220.202 114.364C216.982 114.115 216.719 113.954 211.859 109.973C201.174 101.191 201.789 109.432 187.65 110.998C183.507 111.451 182.629 110.163 179.863 108.217C178.794 107.47 178.136 108.802 178.911 109.519C181.385 111.817 183.595 113.325 187.313 112.944C189.704 112.775 192.081 112.442 194.427 111.949C201.745 110.032 201.745 104.631 210.454 111.671C216.162 116.208 217.143 117.672 226.306 115.96C231.795 114.935 230.463 118.638 242.407 120.058H242.626C243.782 119.956 244.383 118.492 243.109 118.023Z" fill="#000001"/>
<path d="M117.421 137.827C117.173 137.678 116.895 137.583 116.607 137.549C116.319 137.515 116.027 137.542 115.75 137.629C115.473 137.716 115.218 137.861 115.002 138.054C114.785 138.247 114.612 138.484 114.494 138.749C114.494 139.101 114.216 139.437 114.113 139.789C112.65 144.604 112.884 144.721 112.43 144.736C105.361 145.102 108.683 144.37 104.643 144.999C103.619 145.16 103.414 146.961 104.131 147.927C109.62 155.977 109.62 158.948 111.903 157.836C114.187 156.724 107.351 148.088 108.683 148.366C109.804 148.527 110.943 148.527 112.064 148.366C116.221 148.102 114.479 148.102 116.69 142.643C118.548 144.414 120.656 148.498 123.247 150.796C123.452 150.951 123.691 151.058 123.944 151.106C124.197 151.154 124.458 151.143 124.706 151.074C124.954 151.004 125.183 150.878 125.374 150.705C125.565 150.533 125.714 150.318 125.808 150.078C125.955 148.044 125.296 148.132 123.73 146.039C117.626 137.93 118.578 138.984 117.421 137.827Z" fill="#000001"/>
<path d="M137.986 140.14C136.376 140.257 136.201 140.579 132.234 143.521C131.034 144.399 131.531 144.897 128.897 141.618C128.721 141.399 128.663 141.223 129.029 141.033C129.863 140.608 134.166 138.105 134.43 136.642C134.43 136.41 134.401 136.178 134.342 135.954C134.342 135.771 134.303 135.59 134.226 135.424C134.149 135.258 134.038 135.111 133.898 134.992C133.759 134.874 133.595 134.787 133.419 134.739C133.243 134.69 133.058 134.68 132.878 134.71C130.507 134.71 127.023 139.379 126.145 138.208C124.916 136.451 124.374 135.954 124.681 135.822C126.249 135.101 127.724 134.191 129.072 133.114C131.795 131.563 130.975 131.943 130.961 130.597C130.928 130.395 130.854 130.202 130.743 130.031C130.632 129.86 130.487 129.714 130.316 129.602C130.145 129.49 129.952 129.416 129.751 129.383C129.549 129.35 129.343 129.359 129.146 129.411C127.719 129.808 126.429 130.588 125.413 131.665C122.632 133.348 121.432 133.67 121.11 135.588C120.817 137.256 121.666 137.417 122.574 138.925C124.314 141.606 126.231 144.168 128.311 146.595C130.068 149.171 133.127 147.239 138.704 143.404C139.831 142.584 139.582 140.037 137.986 140.14Z" fill="#000001"/>
<path d="M119.646 127.962C123.481 130.201 129.336 127.025 129.336 124.054C129.336 119.824 125.911 121.829 125.882 122.122C125.767 122.572 125.556 122.991 125.261 123.35C124.966 123.709 124.596 123.999 124.177 124.199C123.758 124.399 123.3 124.504 122.836 124.506C122.371 124.509 121.912 124.41 121.49 124.215C120.278 123.649 119.296 122.686 118.708 121.485C118.119 120.284 117.96 118.918 118.256 117.614C118.563 116.633 118.826 117.233 119.719 117.028C121.388 116.677 121.095 114.671 120.378 113.91C115.489 108.787 110.044 122.429 119.646 127.962Z" fill="#000001"/>
<path d="M134.854 121.902C135.498 121.463 135.249 120.819 135.293 120.292C135.366 119.399 135.03 119.282 133.478 116.369C133.244 115.93 135.088 115.652 136.113 116.077C138.85 117.233 140.504 118.404 141.968 117.979C144.061 117.365 143.343 116.194 143.3 115.608C143.28 115.259 143.137 114.929 142.895 114.677C142.654 114.424 142.33 114.267 141.982 114.232C140.065 113.94 137.05 111.642 134.298 112.403C133.273 112.695 134.576 112.139 135.762 105.084C136.084 103.064 132.512 102.625 132.073 105.084C131.785 107.237 131.264 109.352 130.522 111.393L130.214 111.012C127.814 106.855 128.355 107.163 126.35 107.338C126.16 107.349 125.979 107.425 125.838 107.553C125.697 107.681 125.604 107.853 125.574 108.041C125.238 109.227 125.574 109.988 127.038 112.637C131.868 121.2 132.263 123.732 134.854 121.902Z" fill="#000001"/>
<path d="M71.4905 212.169C66.0309 220.57 68.973 217.701 65.2405 231.738C61.0836 247.385 56.9853 247.517 57.4537 249.976C57.7025 251.205 58.9174 251.293 59.1662 249.873C59.619 248.797 60.2094 247.783 60.9226 246.858C66.9823 238.427 69.2218 220.512 69.4999 219.37C70.3353 217.004 71.4822 214.759 72.9103 212.695C73.3201 211.92 72.2516 211.115 71.4905 212.169Z" fill="#000001"/>
<path d="M18.8559 121.068C31.8828 119.341 28.9701 121.068 31.634 122.415C32.3219 122.751 32.9513 122.005 32.3805 121.185C28.7066 115.989 19.2072 120.409 13.5573 119.311C7.35125 118.111 7.43907 115.477 1.26227 114.92C0.979325 114.888 0.694416 114.961 0.462135 115.126C0.229853 115.291 0.0665371 115.536 0.00348817 115.813C-0.0989707 116.545 2.08194 116.94 3.09189 117.116C7.38053 117.965 9.51753 122.297 18.8559 121.068Z" fill="#000001"/>
<path d="M130.682 29.3672C129.965 31.7823 128.282 34.9292 128.384 36.027C128.487 37.1248 129.848 37.3883 130.053 36.1148C130.258 34.8414 134.444 28.0206 132.19 25.4152C130.346 23.2636 129.409 22.8245 129.438 21.4632C129.526 17.6869 129.687 18.1845 132.776 9.87073C133.566 7.763 131.531 7.58736 130.887 9.10961C122.5 29.0891 132.6 22.9269 130.682 29.3672Z" fill="#000001"/>
<path d="M145.158 209.065C143.695 208.831 143.139 211.773 145.056 211.817C145.237 211.824 145.417 211.795 145.586 211.732C145.756 211.669 145.911 211.573 146.044 211.45C146.176 211.327 146.283 211.179 146.359 211.015C146.434 210.851 146.476 210.673 146.483 210.493C146.49 210.312 146.461 210.132 146.398 209.962C146.335 209.793 146.239 209.637 146.116 209.505C145.993 209.372 145.845 209.265 145.681 209.19C145.517 209.114 145.339 209.072 145.158 209.065Z" fill="#000001"/>
<path d="M151.116 62.3882C150.679 61.2963 150.572 60.1005 150.808 58.9485C151.086 56.5773 152.521 55.9187 154.951 54.4257C155.419 54.1329 166.441 50.5323 165.372 45.1898C163.996 38.2518 159.927 33.085 173.335 29.6453C175.589 29.0744 178.384 27.7278 178.78 26.2641C179.482 23.6441 181.151 18.5797 183.756 17.2331C185.322 16.4281 182.761 12.681 179.16 19.1798C175.296 26.1324 179.438 25.1956 171.242 27.8742C167.743 29.0159 166.353 29.455 164.933 30.8016C161.376 34.1535 160.235 34.856 163.308 45.6142C163.528 46.3754 162.884 47.1804 162.284 47.7805C157.293 52.8156 147.266 52.1716 149.11 61.7881C149.696 64.8326 151.569 63.325 151.116 62.3882Z" fill="#000001"/>
<path d="M113.557 30.9333V31.0212C113.557 31.109 113.601 30.9919 113.557 30.9333Z" fill="#000001"/>
<path d="M197.471 258.275C195.1 256.358 194.69 258.012 195.539 258.904C196.807 260.057 198.219 261.041 199.74 261.832C204.131 263.691 205.419 264.393 205.404 262.827C205.8 261.407 201.204 261.319 197.471 258.275Z" fill="#000001"/>
<path d="M41.2212 69.209C40.7968 69.414 40.6943 70.2483 40.7675 70.6727C40.8886 71.3266 41.2008 71.93 41.6644 72.4067C42.1281 72.8834 42.7226 73.2121 43.3729 73.3513C44.2657 73.4684 44.4853 72.678 44.456 72.034C44.4267 71.3899 42.8898 68.3894 41.2212 69.209ZM42.8167 71.9315C42.3861 71.6835 42.0667 71.2803 41.9238 70.8045C41.9238 70.6727 41.7921 70.4239 41.9238 70.3361C42.3483 70.1458 43.1533 71.2289 43.168 71.5363C43.1826 71.8437 43.1387 72.0925 42.8167 71.9315Z" fill="#000001"/>
<path d="M120.788 76.8349C119.954 75.6933 119.031 76.0299 118.505 74.7272C118.109 73.7905 117.875 72.5024 116.821 71.9755C115.006 71.0387 115.562 69.414 114.187 67.8771C113.516 67.18 112.894 66.4366 112.328 65.6523C112.285 65.5604 112.213 65.4849 112.123 65.4374C112.033 65.3899 111.93 65.3729 111.83 65.3888C111.727 65.4036 111.631 65.4516 111.557 65.5254C111.483 65.5993 111.435 65.6952 111.42 65.7987C111.113 67.599 113.469 68.082 113.996 69.9409C115.284 74.5077 115.943 70.9948 117.509 75.5469C118.007 77.0106 119.207 76.8496 120.115 78.0205C120.437 78.445 121.578 79.089 121.973 78.3718C122.369 77.6546 121.139 77.318 120.788 76.8349Z" fill="#000001"/>
<path d="M105.346 120.175C104.438 121.99 105.346 121.8 112.767 132.88C112.956 133.235 113.251 133.521 113.612 133.699C113.972 133.876 114.379 133.936 114.776 133.87C115.172 133.804 115.537 133.614 115.82 133.329C116.104 133.044 116.29 132.677 116.353 132.28C115.182 128.343 111.508 124.2 107.951 120.131C107.38 119.414 105.741 119.414 105.346 120.175Z" fill="#000001"/>
<path d="M48.0274 169.033C46.5637 168.492 38.1328 170.351 33.9466 172.283C31.6572 173.382 29.8799 175.322 28.9847 177.698C25.7206 183.056 19.5585 179.63 11.9765 183.231C11.6018 183.417 11.2992 183.722 11.1165 184.098C10.9337 184.474 10.8809 184.9 10.9666 185.31C11.069 185.822 12.3571 186.29 12.5474 185.193C12.6352 184.768 12.6791 184.548 15.5479 183.919C24.4472 181.928 27.6381 183.817 30.7119 177.874C31.0698 176.861 31.65 175.941 32.4098 175.181C33.1696 174.421 34.0898 173.841 35.103 173.483C38.3524 172.151 45.1147 170.336 47.72 170.556C48.9788 170.629 49.1691 169.428 48.0274 169.033Z" fill="#000001"/>
<path d="M44.4414 67.3941C44.0315 67.599 43.8998 68.4333 43.9876 68.77C44.1051 69.4254 44.416 70.0307 44.8803 70.5081C45.3446 70.9854 45.9411 71.3129 46.593 71.4485C47.4859 71.5803 47.7054 70.7899 47.6761 70.1312C47.6469 69.4725 46.0807 66.5598 44.4414 67.3941ZM46.0368 70.1019C45.8211 69.9821 45.6312 69.8209 45.478 69.6275C45.3247 69.4341 45.2112 69.2123 45.1439 68.9749C45.1439 68.8431 44.9976 68.5943 45.1439 68.5211C45.5684 68.3162 46.3735 69.414 46.3881 69.7214C46.4027 70.0287 46.3149 70.2776 46.0075 70.1019H46.0368Z" fill="#000001"/>
<path d="M105.463 40.6816C106.429 40.2717 110.41 38.2079 110.439 38.1933C111.684 37.5346 110.791 36.9638 109.532 35.1927C109.093 34.5633 109.532 34.4755 105.39 36.6564C103.663 37.5639 102.975 37.7835 103.267 38.3689C103.744 39.347 104.511 40.1544 105.463 40.6816Z" fill="#000001"/>
<path d="M31.3706 74.8297C30.9461 75.0346 30.829 75.8689 30.9168 76.2202C31.0388 76.8722 31.3514 77.4734 31.8152 77.9476C32.279 78.4218 32.8731 78.7477 33.5222 78.8841C34.4151 79.0159 34.6346 78.2255 34.6053 77.5668C34.5761 76.9081 33.0245 73.9954 31.3706 74.8297ZM32.0731 76.4251C32.0731 76.2788 31.9268 76.0299 32.0731 75.9567C32.4976 75.7518 33.288 76.8496 33.3026 77.157C33.3905 78.123 32.322 77.2594 32.0731 76.4251Z" fill="#000001"/>
<path d="M121.842 208.641C122.705 205.421 120.846 205.421 121.373 203.679C122.427 200.283 120.685 199.815 121.271 197.824C121.359 197.546 121.125 196.873 120.7 197.224H120.832C120.832 197.341 119.368 197.663 120.32 200.722C121.037 203.152 119.002 203.855 120.627 206.416C120.861 207.109 120.861 207.86 120.627 208.553C120.173 210.368 120.934 210.88 121.417 212.271C121.666 212.959 121.988 214.437 122.881 213.925C123.774 213.413 122.691 212.461 122.661 212.008C122.544 210.456 121.373 210.354 121.842 208.641Z" fill="#000001"/>
<path d="M94.3827 45.6143C94.3827 46.9023 96.3294 47.4 96.3148 45.9216C96.3001 44.4433 94.3388 44.2677 94.3827 45.6143Z" fill="#000001"/>
<path d="M160.688 142.994C159.605 140.799 157.761 141.194 156.722 139.393C156.531 139.086 156.268 139.174 156.004 139.393C155.741 139.613 155.873 139.862 156.004 140.111C156.722 142.101 158.756 141.779 159.664 143.653C161.23 146.829 162.225 144.809 163.733 147.195C164.699 148.659 164.523 148.556 168.665 150.283C168.885 150.078 169.207 149.917 169.28 149.683C169.302 149.604 169.308 149.522 169.298 149.441C169.288 149.36 169.262 149.281 169.221 149.21C169.18 149.139 169.125 149.077 169.06 149.028C168.995 148.978 168.92 148.942 168.841 148.922C167.275 148.366 167.568 148.088 166.28 147.795C165.46 147.619 165.094 147.049 164.64 146.331C163.001 143.711 161.889 145.453 160.688 142.994Z" fill="#000001"/>
<path d="M39.3038 74.3906C39.1867 75.664 40.9578 76.2056 41.0749 74.5223C41.1085 74.2896 41.049 74.053 40.9092 73.8639C40.7695 73.6748 40.5608 73.5485 40.3284 73.5124C40.2015 73.4909 40.0713 73.4976 39.9473 73.532C39.8232 73.5664 39.7082 73.6277 39.6104 73.7115C39.5127 73.7953 39.4345 73.8995 39.3815 74.0169C39.3286 74.1343 39.302 74.2618 39.3038 74.3906Z" fill="#000001"/>
<path d="M36.6984 74.0832C36.6494 73.7167 36.5406 73.3607 36.3763 73.0294C36.2676 72.8646 36.1267 72.7235 35.9621 72.6147C35.7974 72.5058 35.6124 72.4313 35.4183 72.3958C35.2241 72.3602 35.0248 72.3643 34.8322 72.4078C34.6397 72.4513 34.4579 72.5332 34.2979 72.6488C34.113 72.9312 33.9956 73.2524 33.955 73.5875C33.9144 73.9226 33.9516 74.2625 34.0637 74.5809C34.1515 74.6833 34.4003 74.9029 34.5321 74.698C34.6638 74.493 34.898 73.8344 35.1322 73.9222C35.308 73.994 35.4521 74.1267 35.5381 74.296C35.6242 74.4654 35.6463 74.66 35.6006 74.8443C35.6006 75.2249 35.3078 75.3859 35.5128 75.6347C35.7177 75.8836 36.3032 75.3127 36.6252 75.7226C36.9472 76.1324 36.8447 76.3227 36.7569 76.8496C36.6691 77.3765 38.2206 78.3133 38.2206 75.664C38.1474 74.01 36.8594 74.859 36.6984 74.0832Z" fill="#000001"/>
<path d="M233.903 254.894C234.005 254.835 234.005 254.85 233.903 254.894V254.894Z" fill="#000001"/>
<path d="M40.0503 71.7998C40.0503 70.8338 38.1036 70.3361 38.0743 71.7267C38.0011 72.8391 39.9478 73.2635 40.0503 71.7998Z" fill="#000001"/>
<path d="M239.801 268.199C231.458 253.445 235.41 260.427 231.634 235.441C229.98 224.405 223.876 200.927 221.812 189.335C220.232 180.421 218.987 175.356 215.84 170.702C201.203 149.068 206.458 156.768 201.452 147.371C198.136 141.727 193.751 136.785 188.542 132.821C177.814 124.039 182.688 125.898 169.514 115.374C167.172 113.501 160.864 110.222 160.176 109.153C159.181 107.602 153.706 96.8437 146.915 86.1294C115.694 36.8028 119.105 23.044 98.6129 32.2653C80.2288 40.5498 76.1597 44.4726 75.6913 43.082C74.8863 40.8133 73.7154 37.52 72.6029 33.5973C67.3629 15.4474 68.285 20.9948 66.514 14.7888C63.0743 2.66934 67.2165 13.1641 62.2546 0.268871C62.0204 -0.140964 60.103 -0.272697 60.5274 1.29346C61.9395 4.62956 63.0229 8.09541 63.7622 11.6418C65.6943 20.3215 64.6697 13.9837 69.9097 31.0797C71.7686 37.1394 72.0028 38.6617 73.8471 43.9456C74.4765 45.7021 40.9431 59.7682 29.3653 69.048C26.3647 71.4485 21.8419 82.0018 23.1738 86.7295C24.4473 91.2231 52.0673 138.501 52.1843 138.779C51.2769 138.779 44.778 135.851 41.2359 139.569C39.4648 141.428 38.4988 143.594 39.9039 147.795C41.3091 151.996 44.0169 154.294 46.5784 156.577C57.2195 165.769 60.8202 165.228 65.182 168.287C67.2189 169.715 69.3965 170.931 71.6808 171.917C72.559 172.151 73.3787 174.844 75.7206 178.533C75.8378 178.745 75.9405 178.965 76.028 179.191L70.0122 178.386C66.0602 177.845 61.4788 179.543 60.3225 183.304C59.8774 184.599 59.7568 185.984 59.9711 187.336C60.1855 188.689 60.7283 189.968 61.552 191.062C62.9512 193.04 64.5718 194.852 66.3822 196.463C78.1796 204.967 90.8699 205.918 93.5924 210.734C100.911 223.615 103.955 228.723 105.536 231.636C107.618 235.556 110.142 239.224 113.06 242.569C114.233 243.624 115.688 244.315 117.247 244.56C118.806 244.804 120.402 244.59 121.842 243.945C129.775 240.755 127.697 239.364 129.746 241.135C136.684 246.99 140.958 254.85 147.149 259.68C154.468 265.418 161.215 264.862 162.313 265.915C163.938 267.379 163.894 268.009 167.451 276.996C167.904 278.167 168.036 278.225 169.148 277.625C169.705 277.318 170.319 277.889 166.221 268.521C164.757 265.067 164.391 266.12 168.065 266.472C168.87 266.472 169.851 266.062 169.529 265.301C169.207 264.54 168.9 264.393 164.845 263.837C146.256 260.91 148.027 256.797 135.571 243.872C134.221 242.426 132.8 241.048 131.312 239.745C130.829 239.32 130.961 239.291 131.561 238.954C176.511 213.486 173.247 215.242 173.247 215.945C173.598 233.89 177.506 238.632 189.113 250.356C192.216 253.503 201.54 257.441 202.462 257.367C203.004 257.367 203.37 257.104 203.458 256.665C203.692 255.391 203.223 255.611 199.959 254.162C195.085 251.996 190.914 250.503 183.727 241.764C178.15 234.988 178.223 233.348 176.408 227.889C175.076 223.746 175.501 219.985 175.164 215.389C173.788 196.683 176.628 191.779 173.862 191.106C168.212 189.642 172.017 192.57 151.277 183.89C147.252 182.207 140.519 185.719 130.521 186.964C125.955 187.534 116.602 186.027 114.099 182.28C110.952 177.611 115.841 172.634 115.562 174.683C114.582 182.236 132.483 183.158 131.078 168.682C130.975 167.643 129.424 167.452 129.526 168.799C130.038 176.015 125.706 179.162 119.514 177.903C116.031 177.201 116.938 172.81 117.582 172.429C131.795 163.837 134.181 164.598 145.29 162.432C151.584 161.217 151.145 160.88 150.413 162.432C149.767 163.751 149.417 165.196 149.386 166.665C149.356 168.133 149.647 169.591 150.237 170.936C150.486 171.448 151.438 171.492 151.511 170.775C151.643 169.56 149.769 167.174 151.994 162.315C152.784 160.558 152.477 160.954 154.175 160.588C154.995 160.427 154.716 160.354 154.775 163.515C154.775 164.715 156.034 165.096 156.034 163.31C156.034 160.807 155.8 160.222 156.678 160.119C168.826 158.656 175.179 159.739 189.026 161.349C195.319 162.081 196.9 162.974 202.272 165.008C202.377 165.061 202.492 165.093 202.609 165.101C202.727 165.109 202.845 165.094 202.956 165.056C203.068 165.018 203.171 164.958 203.259 164.88C203.347 164.801 203.418 164.706 203.469 164.6C203.519 164.493 203.548 164.378 203.554 164.26C203.559 164.143 203.541 164.025 203.501 163.915C203.46 163.804 203.398 163.703 203.318 163.616C203.237 163.53 203.141 163.461 203.033 163.413C200 161.987 196.839 160.85 193.592 160.017C185.074 158.26 191.455 162.3 181.883 147.722C181.122 146.58 162.62 113.135 162.591 113.135C162.562 113.135 166.367 115.52 168.446 117.16C175.984 123.015 177.579 125.62 180.8 128.869C186.757 134.827 193.051 138.749 196.798 144.238C204.424 155.392 200.076 151.557 208.595 163.749C220.89 181.416 216.133 176.82 222.691 203.079C234.649 250.942 229.058 252.054 234.503 262.827C236.789 267.327 239.366 271.673 242.216 275.839C242.685 276.498 244.061 276.044 243.812 275.181C243.124 273.014 244.178 275.942 239.801 268.199ZM129.336 59.9438C130.99 62.9883 132.995 66.3988 133.273 66.911C133.903 68.0381 132.088 67.5404 131.619 70.4386C131.565 71.3331 131.312 72.2043 130.879 72.9891C130.446 73.7739 129.844 74.4525 129.116 74.976C124.257 78.5328 124.213 78.5914 123.042 78.8548C120.349 79.4403 119.968 81.5773 117.041 81.5041C115.006 80.8601 115.577 81.0797 115.153 80.6405C116.426 79.8648 118.197 79.5867 117.612 78.6646C117.216 78.0205 116.529 78.6646 115.197 79.1768C113.352 79.8501 111.83 79.4257 111.171 77.6107C110.776 76.5422 112.635 76.0738 113.586 75.3566C113.982 75.0639 114.216 74.7272 114.04 74.2735C113.865 73.8197 113.469 74.0393 112.855 74.2735C111.391 74.9321 108.976 76.5275 107.732 74.4637C106.488 72.3999 106.78 73.3806 111.42 70.0726C111.918 69.7214 111.742 68.4772 109.371 69.8677C108.404 70.5724 107.332 71.1207 106.195 71.4924C105.806 71.6176 105.389 71.6228 104.997 71.5075C104.605 71.3922 104.257 71.1616 103.998 70.8458C103.739 70.53 103.581 70.1436 103.545 69.7368C103.509 69.33 103.595 68.9217 103.794 68.565C104.863 66.9111 104.892 66.6183 105.258 66.3695C108.185 64.657 108.185 63.4421 109.151 63.6177C108.529 64.7161 107.669 65.6614 106.634 66.3841C106.492 66.4368 106.378 66.5434 106.314 66.6805C106.251 66.8177 106.245 66.9743 106.297 67.116C106.605 68.0527 108.346 66.9696 109.064 65.9596C110.527 63.8226 113.103 63.4275 114.918 60.5001C116.851 57.3092 114.055 55.4796 112.181 53.6646C110.718 52.2887 110.044 49.6248 111.318 48.0879C111.581 47.7512 111.742 47.6927 113.85 50.6347C115.958 53.5768 118.241 53.7524 119.236 54.8355C119.787 55.4505 120.277 56.1172 120.7 56.8262C122.164 58.9485 125.399 57.9386 126.716 56.592C127.594 55.8162 127.462 56.4895 129.336 59.9438ZM76.5257 52.9181C77.3307 55.3771 77.4039 55.4796 76.9794 55.8455C74.3008 58.4216 77.682 63.0323 81.4583 60.7928C82.922 59.8853 83.5807 54.938 80.141 54.8209C79.4238 54.8209 78.9261 54.5721 78.8237 53.7378C78.6919 52.4497 77.6966 51.6447 78.8237 51.3227C82.0877 50.4591 86.1422 53.0352 86.4349 57.6166C85.5859 61.4515 85.1322 62.0077 86.0104 63.4714C86.3324 63.9983 86.0104 64.1447 84.3418 65.6084C83.9612 65.945 83.7856 65.784 82.4829 64.613C81.9999 64.1739 79.5555 64.7448 77.6234 64.2764C76.3281 64.0656 75.1319 63.4525 74.2046 62.5238C73.2772 61.5951 72.6658 60.3981 72.4568 59.1025C72.2479 57.8068 72.4521 56.4783 73.0406 55.3052C73.629 54.1321 74.5718 53.1741 75.7353 52.5668C76.3207 52.3473 76.3354 52.3473 76.5257 52.9181ZM79.5702 57.0165C79.4531 55.7284 81.1656 56.3432 81.1363 58.0557C81.1363 60.3976 79.131 60.383 77.8723 59.2705C77.3453 58.8022 77.521 58.1581 77.5649 57.5727C77.5649 57.5727 77.8576 57.397 78.004 57.397C78.1504 57.397 78.2235 57.558 78.326 57.6605C78.4388 57.7635 78.5804 57.8294 78.7318 57.8494C78.8831 57.8694 79.037 57.8425 79.1726 57.7723C79.3082 57.7021 79.4191 57.592 79.4901 57.4568C79.5612 57.3217 79.5891 57.168 79.5702 57.0165ZM112.035 94.5896C117.626 91.6622 131.883 83.202 133.39 82.3092C136.318 80.582 135.586 83.1288 143.973 96.5509C144.632 97.6194 160.513 125.752 159.737 125.591C156.605 124.903 156.253 124.127 152.843 121.536C151.555 120.541 149.667 122.107 150.106 124.639C151.379 131.958 161.537 128.196 154.76 137.095C154.57 137.344 153.619 137.095 152.945 137.095C151.145 137.286 151.613 138.925 149.33 140.945C148.787 141.695 148.4 142.547 148.194 143.45C147.988 144.353 147.966 145.288 148.13 146.2C148.701 147.985 153.663 144.736 114.055 166.969C101.335 174.112 102.916 173.981 93.7534 178.679C92.6849 179.221 92.9044 178.679 89.0988 172.092C56.7218 115.813 56.5315 127.537 67.319 120.468C74.2423 115.93 79.8336 112.344 105.302 98.2196C106.619 97.4877 105.565 105.538 102.038 108.714C101.584 109.139 101.906 108.714 100.911 107.251C100.501 106.607 99.8277 107.573 100.033 107.895C101.262 109.856 97.9542 110.295 98.9934 112.593C99.3008 113.281 98.7007 115.316 100.662 115.037C100.986 114.972 101.321 114.981 101.64 115.065C101.96 115.149 102.256 115.305 102.506 115.52C103.97 116.691 111.523 110.602 112.108 99.8443C112.313 96.2289 110.864 95.2043 112.035 94.5896ZM78.2235 98.5562C82.4536 101.22 78.3992 97.1657 84.7663 107.617C81.8389 109.373 81.8389 109.549 81.634 109.08C81.634 109.08 79.5555 105.26 78.2089 102.464C75.8377 97.5316 73.2909 89.5398 73.3933 87.8273C74.1398 88.2811 79.9214 94.7652 84.1954 96.5217C84.4239 96.5917 84.6339 96.7117 84.8102 96.873C82.7796 97.6584 80.5734 97.876 78.4285 97.5023C77.7552 97.5463 77.6381 98.1903 78.2235 98.5562ZM105.624 112.169C104.951 112.827 103.458 114.554 102.697 113.984C101.511 113.164 100.457 113.984 100.603 113.354C100.852 112.154 99.5057 112.037 100.384 111.437C103.136 109.578 103.516 109.534 105.038 107.046C106.321 104.689 107.01 102.055 107.046 99.372C107.082 96.6889 106.463 94.0376 105.243 91.6476C101.101 82.9825 87.035 70.5849 87.9718 69.8677C91.47 67.1306 87.8254 66.2963 99.1983 78.123C105.741 84.9292 109.898 90.1107 110.908 98.8636C111.073 101.335 110.684 103.812 109.77 106.113C108.856 108.415 107.439 110.484 105.624 112.169ZM87.1521 68.9749C86.8154 69.1798 86.6252 68.9749 86.4495 68.7553C86.2739 68.5358 86.1861 68.726 88.3523 66.7793C88.7475 66.428 88.528 66.3841 89.3184 66.9842C88.7508 67.7984 88.0112 68.478 87.1521 68.9749ZM85.6884 67.3794C85.2493 67.6136 85.1615 67.2477 84.9858 67.0428C84.8102 66.8379 84.6638 67.0428 86.8594 65.0814C87.196 64.7887 87.2253 64.9497 87.6351 65.3888C87.1961 66.2196 86.5315 66.9096 85.7177 67.3794H85.6884ZM68.124 167.877C57.2634 160.983 58.9759 164.452 47.2517 154.572C43.9145 151.747 41.3969 148.849 41.3091 144.107C41.3091 142.321 42.2019 141.384 43.5339 140.169C44.2218 139.554 47.0321 139.613 47.925 139.642C49.6902 139.929 51.4249 140.38 53.1065 140.989C54.2189 141.282 54.0286 141.662 57.7757 147.766C73.7154 173.82 70.4513 169.37 68.0947 167.877H68.124ZM63.0157 189.393C60.0883 185.222 63.3963 179.411 69.8366 180.26C79.5994 181.548 76.7745 181.27 78.7505 183.846C79.336 184.607 90.9724 206.284 90.9431 206.255C76.9355 199.171 70.9782 200.532 62.9864 189.393H63.0157ZM172.5 213.632C171.344 214.247 141.353 231.475 134.81 235.046C111.991 247.517 118.417 248.878 94.0169 207.763C91.953 204.308 65.6796 156.533 59.0637 146.141C43.973 122.341 35.1323 103.855 29.6434 95.3214C29.5409 95.3214 25.2523 88.4421 25.2523 86.8905C25.2667 86.8279 25.2667 86.7629 25.2523 86.7003C23.9057 84.534 25.6621 79.7916 26.0427 80.6698C28.3114 85.866 28.2529 85.5878 37.9865 102.098C39.0842 103.957 46.3296 117.35 51.1598 125.722C58.5661 138.588 59.8395 138.442 78.7066 172.414C80.2434 175.181 87.6644 188.135 95.6562 202.362C104.907 218.814 107.571 224.829 114.26 233.729C118.022 238.749 120.466 238.12 122.822 237.432C127.214 236.1 137.459 230.201 172.413 210.397C172.735 210.207 172.837 210.251 172.852 210.661C172.808 213.091 173.247 213.252 172.5 213.632ZM42.1287 102.83C42.3483 102.83 47.237 100.561 45.3196 97.3413C43.7827 94.7506 45.6709 93.2137 44.4853 89.1885C43.2997 85.1634 43.0216 85.2805 43.8998 85.2219C45.3635 85.1341 47.6908 86.6856 47.9396 90.4473C48.4373 98 55.624 94.4871 57.6147 93.8577C58.5075 93.5796 63.1035 93.3455 62.1521 91.9696C61.7569 91.3987 61.3471 91.8232 60.908 91.9696C59.8548 92.2535 58.7594 92.3476 57.6732 92.2477C57.6732 91.8232 58.2733 91.6476 58.4636 91.6329C59.7384 91.5288 60.986 91.207 62.1521 90.6815C67.7142 89.9789 67.1141 93.3601 65.8992 94.3115C64.172 95.7752 60.4982 96.7851 61.0836 97.6194C61.3178 97.9707 61.5227 98.0878 64.011 97.0486C65.7675 96.3168 66.4554 95.2922 67.0555 96.4338C67.6556 97.5755 68.0508 99.0685 66.6311 100.02C64.6697 101.337 63.3377 101.718 63.7037 102.42C64.4209 103.884 67.5239 100.122 68.3436 102.259C69.8073 106.299 64.5965 106.533 65.3137 107.865C66.0309 109.197 68.3582 105.904 68.4168 107.324C68.278 108.213 67.8695 109.038 67.2464 109.687C66.6233 110.336 65.8158 110.779 64.9332 110.954C62.1375 111.642 62.7669 112.622 60.7323 113.31C59.4004 113.779 55.7119 115.506 53.487 115.506C50.6914 115.506 50.0327 113.457 47.2517 114.423C46.6369 114.628 47.1492 114.833 41.0895 104.03C40.665 103.284 40.8114 103.533 42.0848 102.83C42.1727 102.859 42.158 102.874 42.1287 102.83ZM128.209 191.003C127.989 189.452 127.609 189.174 128.209 189.13C130.8 188.969 130.917 188.852 131.136 189.262C132.19 191.413 132.937 191.838 132.907 193.96C132.907 197.414 135.688 198.351 139.04 197.707C140.211 197.473 140.182 197.473 140.255 198.688C140.255 198.688 140.811 206.006 140.401 206.006C140.401 210.295 140.548 210.295 140.065 210.397C139.513 210.499 138.956 210.573 138.396 210.617C134.795 210.617 135.366 214.057 131.078 214.701C122.398 216.003 123.759 214.086 120.685 214.701C118.753 215.081 116.207 214.262 115.782 212.3C117.817 212.549 118.9 212.871 118.944 211.978C118.944 210.661 113.748 212.066 113.879 208.085C113.952 206.079 116.558 207.558 117.89 206.885C118.3 206.694 118.68 205.889 116.88 205.743C114.772 205.582 112.796 205.435 112.664 203.328C112.474 200.605 112.899 201.864 118.124 201.396C118.223 201.408 118.323 201.387 118.408 201.335C118.493 201.283 118.558 201.204 118.592 201.11C118.626 201.016 118.627 200.914 118.595 200.82C118.564 200.725 118.501 200.644 118.417 200.591C116.953 199.625 114.026 200.796 112.196 199.595C111.918 199.411 111.69 199.161 111.533 198.867C111.375 198.574 111.293 198.245 111.293 197.912C111.293 197.579 111.375 197.251 111.533 196.957C111.69 196.663 111.918 196.413 112.196 196.229C114.231 195.014 114.626 194.985 115.211 194.999C117.904 194.999 117.934 194.209 119.397 194.531C120.334 194.736 116.968 195.834 115.958 195.76C115.226 195.76 114.918 196.653 115.767 196.873C116.833 197.038 117.924 196.88 118.9 196.419C120.276 195.804 129.029 196.756 128.209 191.003ZM178.663 145.526C180.536 149.434 186.318 159.022 186.332 159.051C185.322 159.227 175.603 157.704 173.876 157.587C162.796 156.885 159.327 157.836 142.26 160.895C135.381 162.139 130.946 162.9 123.686 166.662C118.417 169.399 114.904 171.243 112.518 174.347C111.542 175.588 110.984 177.105 110.924 178.683C110.863 180.26 111.303 181.817 112.181 183.129C116.192 189.115 126.218 188.647 126.613 189.657C128.253 193.726 125.15 194.224 121.549 194.78C120.964 194.868 120.334 192.57 118.446 193.17C115.738 194.048 114.904 193.419 113.952 193.872C111.64 194.985 109.664 195.775 110.103 198.746C110.366 200.547 111.845 200.517 111.567 201.249C111.308 201.941 111.219 202.684 111.305 203.417C111.392 204.15 111.652 204.852 112.064 205.465C112.255 205.816 113.191 206.358 113.06 206.504C112.372 207.353 112.694 208.29 112.796 209.212C113.03 211.261 114.596 211.159 114.567 211.92C114.479 214.013 115.709 214.671 117.626 215.681C119.544 216.691 121.812 215.681 122.954 216.135C124.842 216.852 133.493 216.721 135.732 213.822C136.083 213.218 136.587 212.717 137.194 212.37C137.8 212.023 138.488 211.842 139.187 211.846C139.772 211.846 139.509 212.066 140.05 213.998C140.445 215.359 141.104 215.769 145.802 215.462C154.087 214.935 152.755 218.272 152.843 198.995C152.83 197.274 152.477 195.573 151.804 193.989C151.174 192.438 149.359 193.023 143.504 192.906C141.924 192.906 140.021 192.687 139.465 194.282C138.733 196.404 138.835 196.434 138.411 196.522C136.654 196.902 134.532 196.404 134.371 194.589C134.384 192.744 133.827 190.939 132.776 189.423C132.219 188.588 131.766 189.086 142.685 186.729C146.798 185.851 148.54 184.841 152.682 186.568C162.386 190.608 165.065 192.291 173.174 193.096C173.481 193.096 173.583 193.228 173.569 193.536C172.456 208.714 173.261 207.748 172.427 208.173C131.444 230.787 122.281 239.481 117.348 234.622C113.118 230.45 107.307 219.736 106.678 218.609C94.2218 195.468 85.0151 179.499 77.4039 166.282C73.7885 160.017 70.3635 153.752 67.3922 148.717C61.1861 138.354 56.1363 130.45 50.6914 120.907C47.3688 115.184 47.281 115.725 48.4226 115.564C50.0474 115.345 50.6767 117.028 53.6188 116.882C55.0825 116.882 55.8436 116.677 61.5227 114.452C62.9864 113.852 63.2645 112.842 64.9332 112.417C67.7581 111.686 70.6123 108.656 69.3243 106.036C68.8998 105.128 70.5538 104.835 69.617 102.113C69.5576 101.761 69.427 101.425 69.2332 101.126C69.0394 100.826 68.7865 100.57 68.4899 100.371C68.0362 100.137 70.3928 98.0585 67.5825 94.9116C67.0994 94.37 69.2218 92.1306 66.5432 90.0082C65.6517 89.5217 64.6609 89.2451 63.6463 89.1995C62.6317 89.1538 61.6201 89.3403 60.6884 89.7448C58.5954 90.6376 56.5754 89.8472 56.1217 92.6721C56.1217 92.9063 56.1217 93.0673 55.8143 93.1405C45.3635 96.0679 52.1843 89.4081 46.3296 84.6511C45.8849 84.27 45.3521 84.0061 44.7795 83.8833C44.2068 83.7606 43.6126 83.783 43.0509 83.9485C40.9431 84.5779 42.5239 86.6856 43.3436 90.3009C43.9145 92.8331 42.6264 94.0334 43.8998 97.4731C44.8951 100.137 43.3436 100.81 40.6943 101.864C40.1528 102.098 40.021 102.025 39.7429 101.528C29.2336 82.7336 31.0925 86.8027 30.4192 85.2658C29.0872 82.2213 22.8226 75.8543 33.0685 68.3016C37.4595 65.0814 72.5151 47.3268 74.052 46.5803C74.7107 46.2436 74.5497 45.8631 75.8377 50.2249C76.1744 51.3959 72.1638 51.9521 71.2563 56.5627C70.2318 61.7881 74.7107 66.5598 80.8143 65.6084C82.1755 65.3888 80.8143 66.75 82.9659 67.0721C84.6931 67.3794 83.5368 68.5358 84.6053 68.6968C85.9226 68.8139 85.0883 70.4093 86.1861 70.3947C86.4349 70.3947 86.1861 70.3947 96.432 81.6651C101.95 87.6956 102.082 87.5199 105.214 94.4871C105.39 94.916 105.494 95.371 105.522 95.8337C105.522 95.9801 86.2739 107.382 85.7616 106.475C85.2493 105.567 84.2979 104.309 83.7417 103.182C83.1855 102.054 82.3951 100.547 81.6925 99.2441C81.312 98.5123 82.1902 99.2442 84.9712 98.1464C86.1422 97.6926 87.1667 97.034 86.23 96.185C84.8687 94.9555 83.6685 95.4971 79.5409 91.7061C75.1498 87.6956 72.4566 84.6804 72.3395 86.832C71.8711 94.5018 80.6533 109.71 80.6679 109.71C81.0924 110.544 59.898 121.77 58.4197 123.922C57.9074 124.669 63.9964 134.168 70.1293 143.887C75.9841 153.035 80.3752 161.451 91.7335 180.04C93.285 182.573 91.4115 181.372 145.173 151.366C150.208 148.556 149.828 148.439 150.662 148.527C151.116 148.527 151.672 148.337 152.038 148.527C152.404 148.717 152.404 149.332 152.697 149.654C155.36 152.581 156.868 150.84 157 151.527C157.19 152.64 158.141 153.079 158.917 153.679C159.27 153.915 159.671 154.071 160.09 154.137C160.51 154.203 160.939 154.176 161.347 154.06C162.24 153.913 162.591 155.801 165.094 155.143C167.597 154.484 167.612 154.63 169.617 152.215C171.081 150.503 171.388 151.454 173.408 149.025C174.879 147.502 176.212 145.852 177.389 144.092C177.638 143.755 177.799 143.726 178.663 145.526ZM151.452 212.505C151.745 214.408 148.115 213.852 148.101 213.808C146.9 213.91 141.485 214.54 141.646 213.808C142.202 210.998 141.763 201.732 141.485 197.605C141.221 193.887 140.87 194.15 141.646 194.136C142.445 194.118 143.245 194.182 144.031 194.326C147.808 194.985 150.486 193.199 150.969 195.409C151.271 196.442 151.433 197.51 151.452 198.585C151.291 203.869 151.452 212.49 151.452 212.505ZM175.018 139.218C177.023 142.745 178.223 141.765 171.666 149.098C170.729 150.152 169.617 149.815 168.314 151.747C167.822 152.564 167.078 153.199 166.193 153.556C165.309 153.912 164.332 153.971 163.411 153.723C162.372 153.401 166.119 152.171 165.167 151.074C164.465 150.269 163.879 152.054 161.201 152.845C160.663 152.892 160.124 152.778 159.652 152.518C159.18 152.257 158.797 151.861 158.551 151.381C158.229 150.664 158.698 150.518 160.278 148.878C161.288 147.839 160.63 146.961 159.532 147.81C156.81 149.917 155.829 151.235 153.677 148.161C153.282 147.619 154.131 147.663 157.102 144.15C157.497 143.667 157.102 143.038 156.561 143.389C154.102 144.955 154.38 145.512 152.594 146.624C152.279 146.878 151.896 147.034 151.493 147.072C151.09 147.111 150.685 147.03 150.328 146.839C149.971 146.649 149.677 146.358 149.484 146.002C149.291 145.646 149.207 145.242 149.242 144.838C149.915 142.643 149.915 142.365 150.589 141.706C152.316 140.037 152.418 138.53 153.326 138.471C153.035 139.714 152.425 140.86 151.555 141.794C151.043 142.218 151.555 143.653 152.931 142.145C154.307 140.638 153.867 140.081 155.009 138.896C158.098 135.646 158.083 134.344 158.507 132.938C157.615 127.611 152.477 129.792 151.555 124.756C151.478 124.228 151.513 123.69 151.657 123.176C151.789 122.576 151.965 122.576 152.418 122.941C160.732 129.557 157.527 124.742 163.03 129.191C165.021 130.801 166.85 129.382 168.504 127.947C169.266 127.274 172.354 134.505 175.018 139.218ZM167.934 126.293C166.807 128.079 164.596 129.221 163.543 127.757C160.352 123.366 162.928 125.84 146.71 97.9415C135.103 77.9766 136.025 79.572 134.678 80.1722C133.332 80.7723 111.61 92.8917 111.581 92.9063C110.498 93.5504 111.581 91.4426 104.965 82.8654C102.375 79.4989 97.4273 74.5369 93.2557 69.9116C91.9238 68.4479 91.0602 67.1452 89.9478 66.0036C88.8354 64.8619 89.494 64.7448 88.8207 64.5399C87.8986 64.2471 88.0742 63.8666 87.9864 63.0762C87.8986 62.2858 86.9911 62.9298 86.8594 62.52C86.7276 62.1101 86.5081 61.9638 86.6544 61.5393C87.0231 60.5486 87.2928 59.5239 87.4595 58.4802C87.7197 56.6713 87.3139 54.8296 86.3177 53.2976C85.3215 51.7656 83.8027 50.6476 82.0438 50.1517C78.7212 49.332 78.1064 50.9275 77.6527 49.3467C77.4478 48.7319 76.8623 46.712 76.8623 46.6388C76.8623 45.2922 73.9349 46.6388 85.9226 40.5059C113.089 26.5715 110.03 26.3959 126.57 54.6013C126.774 54.9526 126.774 55.1429 126.379 55.421C121.198 59.0217 122.442 54.5135 118.226 52.4936C115.826 51.3959 114.918 49.7858 112.855 47.1365C110.791 44.4872 106.912 50.2981 111.552 54.7038C113.221 56.2992 114.187 56.6066 114.362 58.3338C114.538 60.0609 112.196 61.671 110.952 62.7249C110.718 62.9005 109.986 62.4614 109.4 62.3443C107.468 61.9638 107.659 63.5738 104.702 65.2717C103.803 66.1621 103.074 67.2086 102.55 68.3601C102.352 68.8482 102.267 69.375 102.301 69.9009C102.336 70.4267 102.489 70.9378 102.75 71.3958C103.01 71.8537 103.372 72.2466 103.806 72.5447C104.241 72.8429 104.737 73.0386 105.258 73.1171C106.268 73.2196 104.863 74.7565 108.273 76.8349C108.654 77.0691 109.737 76.9813 109.737 77.3179C109.864 78.2393 110.302 79.0898 110.978 79.7285C111.654 80.3673 112.528 80.7562 113.455 80.8308C114.099 80.8308 114.157 82.7922 116.909 82.7775C117.784 82.8728 118.669 82.7739 119.501 82.488C120.334 82.2022 121.093 81.7363 121.725 81.1236C123.481 79.7623 123.832 80.5966 125.413 79.4696C131.517 75.0785 132.102 75.503 133.273 70.1166C133.314 69.959 133.373 69.8067 133.449 69.6628C133.99 68.6968 134.283 68.6675 134.825 69.6628C134.766 69.5603 168.387 125.576 167.934 126.293Z" fill="#000001"/>
<path d="M52.199 62.6225C51.028 64.4521 50.6328 65.2571 49.2716 67.2624C49.0521 67.5844 49.1106 68.1991 49.9303 68.0674C50.5158 67.9649 51.2769 67.4527 51.8038 68.1552C54.0433 71.0826 53.7944 68.4333 53.6481 62.5785C53.6627 61.6857 52.843 61.6125 52.199 62.6225Z" fill="#000001"/>
<path d="M159.942 174.112C160.659 174.346 160.952 173.878 161.142 173.117C162.123 169.297 163.499 165.008 161.815 162.154C161.698 162.01 161.535 161.912 161.354 161.875C161.173 161.837 160.984 161.863 160.82 161.949C160.684 162.071 160.592 162.236 160.56 162.416C160.529 162.597 160.558 162.783 160.644 162.944C162.459 165.828 158.844 173.79 159.942 174.112Z" fill="#000001"/>
<path d="M96.1685 41.8672C95.0268 42.4526 96.4319 44.3262 97.398 45.1605C97.563 45.2764 97.7598 45.3385 97.9615 45.3385C98.1632 45.3385 98.36 45.2764 98.525 45.1605C99.4033 44.5311 97.4273 41.2231 96.1685 41.8672Z" fill="#000001"/>
<path d="M98.5981 39.0423C97.7345 39.2033 97.8516 40.7109 98.3493 41.4281C100.062 43.6968 100.311 43.8432 100.779 43.8432C102.155 43.8432 102.243 42.9211 101.438 41.8379C99.5934 39.2179 99.5788 38.8666 98.5981 39.0423Z" fill="#000001"/>
<path d="M98.0128 45.4386C98.1299 45.5265 98.0859 45.4386 98.203 45.4386C98.0859 45.3069 98.1299 45.3069 98.0128 45.4386Z" fill="#000001"/>
<path d="M59.5321 101.015C60.8202 102.289 59.6199 103.504 60.6299 104.909C61.6398 106.314 61.9765 106.372 61.9765 110.324C61.9765 111.407 63.1914 111.422 63.2792 110.412C63.367 109.402 63.1328 108.436 63.1767 107.836C63.2499 106.899 63.1767 106.372 61.8887 104.601C60.9519 103.328 62.1814 102.069 60.8787 100.766C58.7271 98.6001 60.0298 97.034 58.288 95.2775C57.7903 94.7652 56.8243 95.1751 57.4683 95.9362C58.6246 97.4731 57.6147 99.1271 59.5321 101.015Z" fill="#000001"/>
</svg>
