<svg width="285" height="325" viewBox="0 0 285 325" fill="none" xmlns="http://www.w3.org/2000/svg">
<g clip-path="url(#clip0_1_207)">
<path d="M136.366 304.478L136.003 296.335C135.966 296.315 135.928 296.295 135.89 296.276C132.01 294.239 127.562 297.925 128.802 302.129C129.968 306.084 130.752 310.347 132.886 313.809C134.147 315.82 135.845 317.521 137.853 318.786C139.861 320.052 142.128 320.849 144.486 321.119L149.416 324.138C150.093 320.366 149.944 316.493 148.979 312.785C148.015 309.077 146.258 305.622 143.829 302.658C142.451 301.009 140.87 299.54 139.124 298.286C137.943 301.399 136.366 304.478 136.366 304.478Z" fill="#F2F2F2"/>
<path d="M92.2254 221.843C82.7336 212.054 68.9787 206.44 54.4875 206.44L53.9286 206.441C44.3836 206.445 35.009 203.913 26.7635 199.105L25.9055 198.605L26.5965 197.893C30.3379 194.022 33.4619 189.599 35.8591 184.779C34.1565 186.367 32.1259 187.56 29.9109 188.276C27.6958 188.991 25.3506 189.211 23.0411 188.92C20.6029 188.629 18.2621 187.79 16.1944 186.466C14.1267 185.142 12.3858 183.366 11.1021 181.273C6.03733 173.055 0 161.395 0 152.512C0.00788415 145.003 1.57999 137.579 4.61612 130.712C7.65225 123.845 12.0858 117.686 17.6341 112.627C21.1467 109.46 23.9524 105.588 25.8682 101.263C27.784 96.9392 28.767 92.2597 28.753 87.53L28.7501 86.8569C28.7492 80.6301 29.5101 74.4265 31.016 68.3844L31.1689 67.7743L31.7967 67.7962C35.8448 67.934 39.8951 67.5947 43.8638 66.7853C40.1411 66.3287 36.4993 65.36 33.0416 63.9069L32.3663 63.6337L32.5955 62.9417C48.3941 53.1597 84.0563 58.2253 104.756 10.8665C121.54 -27.535 180.761 44.9556 180.761 86.8569C180.761 91.1325 176.529 96.7825 179.697 99.6084C213.939 130.157 190.312 149.773 182.863 169.512C181.096 174.195 184.928 179.336 184.928 184.403C184.928 185.263 184.906 186.15 184.863 187.041L184.797 188.41L183.655 187.65C181.397 186.17 179.303 184.453 177.41 182.528C179.374 187.046 180.299 191.948 180.119 196.872C179.938 201.796 178.655 206.616 176.365 210.979C172.777 217.752 169.305 222.6 166.047 225.389C155.609 234.321 142.154 238.929 128.432 238.27C114.71 237.61 101.759 231.734 92.2254 221.843Z" fill="#E6E6E6"/>
<path d="M149.553 323.736C149.786 323.736 150.012 323.651 150.188 323.498C150.364 323.345 150.479 323.134 150.512 322.903C150.553 322.613 154.589 293.505 150.964 254.82C147.617 219.093 136.867 167.633 104.664 125.37C104.586 125.269 104.49 125.184 104.38 125.119C104.27 125.055 104.148 125.013 104.022 124.996C103.896 124.979 103.767 124.987 103.644 125.02C103.521 125.052 103.405 125.109 103.304 125.186C103.202 125.263 103.117 125.36 103.053 125.47C102.989 125.58 102.947 125.702 102.93 125.828C102.913 125.954 102.921 126.083 102.954 126.206C102.987 126.329 103.043 126.445 103.121 126.546C135.046 168.444 145.709 219.526 149.033 255.001C152.637 293.461 148.632 322.342 148.591 322.629C148.572 322.767 148.582 322.907 148.622 323.04C148.661 323.174 148.729 323.297 148.82 323.402C148.911 323.507 149.024 323.591 149.15 323.648C149.276 323.706 149.414 323.736 149.553 323.736Z" fill="#3F3D56"/>
<path d="M123.273 184.984C123.478 184.984 123.678 184.919 123.844 184.799C124.009 184.679 124.133 184.509 124.196 184.314C124.26 184.12 124.26 183.91 124.197 183.715C124.133 183.52 124.01 183.35 123.844 183.23C123.727 183.145 111.947 174.656 94.3344 168.208C78.0533 162.247 53.2955 156.843 27.8077 164.955C27.6862 164.994 27.5734 165.056 27.4759 165.138C27.3783 165.22 27.2979 165.32 27.2393 165.433C27.1806 165.547 27.1449 165.67 27.1341 165.797C27.1232 165.924 27.1376 166.052 27.1762 166.174C27.2149 166.295 27.2771 166.408 27.3594 166.505C27.4416 166.603 27.5422 166.683 27.6555 166.741C27.7688 166.8 27.8925 166.835 28.0196 166.846C28.1466 166.857 28.2745 166.842 28.3959 166.803C53.3615 158.858 77.6705 164.172 93.6675 170.029C111.028 176.386 122.589 184.715 122.704 184.799C122.869 184.919 123.069 184.984 123.273 184.984Z" fill="#3F3D56"/>
<path d="M167.662 74.4287C167.677 74.2244 167.627 74.0206 167.519 73.8465C167.41 73.6725 167.25 73.5371 167.06 73.4599C166.871 73.3826 166.661 73.3674 166.462 73.4165C166.263 73.4655 166.085 73.5763 165.953 73.7329C165.86 73.8434 156.545 84.9823 148.845 102.084C141.727 117.894 134.555 142.198 140.81 168.204C140.87 168.454 141.027 168.67 141.246 168.804C141.466 168.939 141.73 168.98 141.98 168.92C142.23 168.86 142.446 168.703 142.58 168.484C142.714 168.264 142.756 168 142.696 167.75C136.569 142.277 143.62 118.414 150.614 102.881C158.204 86.0227 167.345 75.0917 167.436 74.9833C167.568 74.827 167.647 74.6328 167.662 74.4287Z" fill="#3F3D56"/>
<path d="M166.349 124.438C167.168 131.04 171.742 136.483 178.395 136.483C181.589 136.483 184.653 135.214 186.912 132.955C189.171 130.696 190.44 127.632 190.44 124.438C190.44 117.785 185.019 113.007 178.395 112.392C171.366 111.74 165.299 115.962 166.349 124.438Z" fill="#2F2E41"/>
<path d="M183.974 318.43L188.561 318.43L190.743 300.737L183.973 300.738L183.974 318.43Z" fill="#FFB6B6"/>
<path d="M183.812 323.215L197.918 323.215V323.037C197.918 321.58 197.34 320.184 196.31 319.154C195.28 318.125 193.884 317.546 192.428 317.546L189.851 315.592L185.044 317.547L183.812 317.547L183.812 323.215Z" fill="#2F2E41"/>
<path d="M165.906 318.43L170.493 318.43L172.675 300.737L165.905 300.738L165.906 318.43Z" fill="#FFB6B6"/>
<path d="M165.744 323.215L179.85 323.215V323.037C179.85 321.58 179.271 320.184 178.242 319.154C177.212 318.125 175.816 317.546 174.36 317.546L171.783 315.592L166.975 317.547L165.744 317.547L165.744 323.215Z" fill="#2F2E41"/>
<path d="M199.759 207.616L203.002 218.735L199.181 265.826C199.181 265.826 201.149 268.77 199.759 268.77C198.369 268.77 196.587 269.423 197.71 271.181C198.832 272.94 194.995 279.252 194.995 279.252L189.567 312.782L182.65 312.68C182.65 312.68 179.134 310.721 181.107 308.74C183.081 306.76 184.47 306.76 182.617 304.906C180.764 303.053 180.764 303.611 180.764 302.174C180.764 300.737 178.907 283.172 183.31 276.434L181.984 248.964L178.859 275.909L172.425 311.856L165.762 311.801C165.762 311.801 162.685 308.835 162.69 306.639C162.696 304.443 164.592 304.261 163.181 302.962C161.769 301.663 161.769 281.713 165.939 270.623C165.939 270.623 168.298 264.427 165.934 262.304C163.57 260.181 165.931 257.752 165.931 257.752C165.931 257.752 169.675 256.398 165.927 252.498C162.18 248.599 165.907 221.018 165.907 221.018C165.907 221.018 161.81 209.885 165.959 205.508C170.109 201.13 199.759 207.616 199.759 207.616Z" fill="#2F2E41"/>
<path d="M141.999 226.773L147.785 212.79L152.344 215.322L149.591 229.547C149.866 230.448 149.885 231.408 149.645 232.319C149.405 233.231 148.915 234.057 148.232 234.705C147.548 235.354 146.696 235.798 145.774 235.99C144.851 236.181 143.893 236.111 143.008 235.787C142.123 235.464 141.345 234.9 140.763 234.159C140.181 233.418 139.817 232.529 139.712 231.592C139.607 230.656 139.766 229.709 140.17 228.857C140.574 228.006 141.207 227.284 141.999 226.773Z" fill="#FFB6B6"/>
<path d="M239.092 116.2L230.288 128.508L226.422 125.008L232.326 111.778C232.262 110.838 232.461 109.898 232.901 109.065C233.341 108.232 234.005 107.538 234.818 107.061C235.631 106.585 236.561 106.344 237.503 106.367C238.446 106.39 239.363 106.676 240.151 107.191C240.94 107.707 241.57 108.432 241.969 109.286C242.368 110.14 242.521 111.088 242.411 112.024C242.301 112.96 241.932 113.846 241.346 114.584C240.759 115.322 239.979 115.881 239.092 116.2Z" fill="#FFB6B6"/>
<path d="M200.633 208.756C206.343 217.613 177.639 228.854 166.625 224.341C164.697 223.551 158.063 220.941 162.597 217.323C167.132 213.704 162.071 213.195 161.952 210.839C161.872 209.265 163.091 205.81 161.819 205.958C160.547 206.106 159.058 203.928 161.828 202.991C164.599 202.054 161.858 201.199 161.882 200.31C162.147 190.601 169.596 175.159 169.596 175.159L156.174 209.469C156.174 209.469 156.273 215.405 154.562 213.591C152.85 211.777 152.975 217.648 152.975 217.648C152.975 217.648 150.43 219.424 151.893 220.412C153.357 221.401 150.317 224.44 150.317 224.44L143.226 223.933C143.226 223.933 143.337 218.666 144.548 217.501C145.759 216.336 145.164 214.502 145.164 214.502C145.164 214.502 148.316 211.712 146.203 209.446C143.485 206.532 153.395 157.312 156.815 157.8C157.299 155.446 158.424 153.273 160.065 151.519C161.707 149.765 163.802 148.499 166.118 147.861L173.777 145.753L175.137 140.356H185.922L187.8 143.902L196 147.602C197.544 145.423 198.698 143.127 205.022 142.383C205.022 142.383 222.063 126.878 221.231 125.667C220.399 124.457 223.041 121.622 223.041 121.622C223.041 121.622 225.297 120.884 224.024 120.49C222.751 120.095 225.157 119.184 225.157 119.184C225.157 119.184 227.386 118.598 226.335 117.827C225.284 117.056 229.842 116.55 229.842 116.55L235.757 121.376L234.562 123.403C234.562 123.403 235.29 126.163 234.339 125.155C233.388 124.148 233.209 127.072 233.209 127.072C233.209 127.072 232.723 130.274 229.842 131.239C226.961 132.204 224.777 141.369 224.777 141.369C217.983 150.203 209.965 157.094 200.464 161.631C204.167 165.881 200.633 208.756 200.633 208.756Z" fill="#216EBB"/>
<path d="M179.726 137.199C185.626 137.199 190.408 132.416 190.408 126.517C190.408 120.618 185.626 115.836 179.726 115.836C173.827 115.836 169.045 120.618 169.045 126.517C169.045 132.416 173.827 137.199 179.726 137.199Z" fill="#FFB6B6"/>
<path d="M168.666 127.681C169.004 130.002 170.982 133.24 170.519 133.24C170.056 133.24 166.762 123.672 170.056 123.048C172.445 122.595 172.979 122.992 175.212 122.024L174.897 122.321C176.375 123.395 178.432 122.733 180.118 122.033C181.809 121.338 183.862 120.676 185.344 121.746C186.275 122.418 186.669 123.585 187.248 124.577C187.827 125.573 188.898 126.513 190 126.208C190.885 125.962 191.395 124.971 191.39 124.053C191.385 123.136 190.191 122.263 190.593 121.44C191.785 119.001 190.713 117.339 188.115 116.191C187.169 116.048 186.224 115.901 185.279 115.751C185.775 115.065 186.375 114.462 187.058 113.963C186.77 113.223 186.27 112.583 185.622 112.124C184.867 111.674 183.931 111.707 183.056 111.753C181.1 111.855 179.147 111.957 177.195 112.059C175.749 112.133 174.253 112.221 172.961 112.883C171.348 113.713 170.292 115.33 169.523 116.974C167.799 120.671 168.073 123.646 168.666 127.681Z" fill="#2F2E41"/>
<path d="M124.232 324.419L229.282 324.561C229.428 324.561 229.569 324.503 229.672 324.4C229.776 324.296 229.834 324.156 229.834 324.01C229.834 323.863 229.776 323.723 229.672 323.619C229.569 323.516 229.428 323.458 229.282 323.458L124.232 323.316C124.085 323.316 123.945 323.374 123.842 323.477C123.738 323.581 123.68 323.721 123.68 323.867C123.68 324.013 123.738 324.154 123.842 324.257C123.945 324.361 124.085 324.419 124.232 324.419Z" fill="#CACACA"/>
<path d="M86.2375 276.334C86.4312 275.003 85.0371 273.698 83.1238 273.42C81.2104 273.141 79.5023 273.995 79.3087 275.326C79.115 276.657 80.5091 277.961 82.4225 278.24C84.3358 278.518 86.0439 277.665 86.2375 276.334Z" fill="#E6E6E6"/>
<path d="M109.018 274.111C109.212 272.78 107.818 271.475 105.904 271.197C103.991 270.918 102.283 271.772 102.089 273.103C101.896 274.434 103.29 275.738 105.203 276.017C107.116 276.295 108.824 275.442 109.018 274.111Z" fill="#3F3D56"/>
<path d="M79.9996 257.891C80.1932 256.56 78.7992 255.255 76.8858 254.977C74.9725 254.699 73.2644 255.552 73.0707 256.883C72.8771 258.214 74.2712 259.519 76.1845 259.797C78.0979 260.075 79.8059 259.222 79.9996 257.891Z" fill="#FF6584"/>
<path d="M70.1008 250.337C70.1101 249.115 69.4284 248.119 68.5784 248.113C67.7284 248.106 67.0318 249.092 67.0225 250.313C67.0133 251.535 67.6949 252.531 68.5449 252.538C69.395 252.544 70.0916 251.559 70.1008 250.337Z" fill="#E6E6E6"/>
<path d="M66.744 236.266C66.7532 235.044 66.0716 234.048 65.2216 234.042C64.3716 234.035 63.675 235.021 63.6657 236.243C63.6565 237.465 64.3381 238.46 65.1881 238.467C66.0382 238.473 66.7347 237.488 66.744 236.266Z" fill="#3F3D56"/>
<path d="M92.8479 261.03C92.8572 259.808 92.1756 258.812 91.3255 258.805C90.4755 258.799 89.7789 259.784 89.7697 261.006C89.7604 262.228 90.442 263.224 91.2921 263.23C92.1421 263.237 92.8387 262.252 92.8479 261.03Z" fill="#E6E6E6"/>
<path d="M81.8394 266.526C81.8486 265.304 81.167 264.308 80.317 264.302C79.4669 264.295 78.7704 265.281 78.7611 266.503C78.7519 267.725 79.4335 268.72 80.2835 268.727C81.1335 268.733 81.8301 267.748 81.8394 266.526Z" fill="#FF6584"/>
<path d="M97.1637 276.685C97.1729 275.463 96.4913 274.467 95.6413 274.461C94.7912 274.454 94.0946 275.44 94.0854 276.662C94.0762 277.884 94.7578 278.879 95.6078 278.886C96.4579 278.892 97.1544 277.907 97.1637 276.685Z" fill="#3F3D56"/>
<path d="M261.36 204.987C261.554 203.656 260.16 202.352 258.246 202.073C256.333 201.795 254.625 202.648 254.431 203.979C254.238 205.31 255.632 206.615 257.545 206.893C259.458 207.172 261.167 206.319 261.36 204.987Z" fill="#E6E6E6"/>
<path d="M284.141 202.765C284.334 201.434 282.94 200.129 281.027 199.85C279.114 199.572 277.406 200.425 277.212 201.756C277.018 203.087 278.412 204.392 280.326 204.671C282.239 204.949 283.947 204.096 284.141 202.765Z" fill="#3F3D56"/>
<path d="M255.122 186.545C255.315 185.214 253.921 183.909 252.008 183.631C250.095 183.352 248.387 184.206 248.193 185.537C247.999 186.868 249.393 188.172 251.307 188.451C253.22 188.729 254.928 187.876 255.122 186.545Z" fill="#FF6584"/>
<path d="M245.223 178.99C245.233 177.769 244.551 176.773 243.701 176.766C242.851 176.76 242.154 177.745 242.145 178.967C242.136 180.189 242.818 181.185 243.668 181.191C244.518 181.198 245.214 180.212 245.223 178.99Z" fill="#E6E6E6"/>
<path d="M241.867 164.92C241.876 163.698 241.194 162.702 240.344 162.696C239.494 162.689 238.798 163.674 238.788 164.896C238.779 166.118 239.461 167.114 240.311 167.121C241.161 167.127 241.857 166.142 241.867 164.92Z" fill="#3F3D56"/>
<path d="M267.971 189.683C267.98 188.461 267.298 187.466 266.448 187.459C265.598 187.453 264.902 188.438 264.892 189.66C264.883 190.882 265.565 191.878 266.415 191.884C267.265 191.891 267.961 190.905 267.971 189.683Z" fill="#E6E6E6"/>
<path d="M256.962 195.18C256.971 193.958 256.29 192.962 255.44 192.956C254.59 192.949 253.893 193.935 253.884 195.156C253.875 196.378 254.556 197.374 255.406 197.381C256.256 197.387 256.953 196.402 256.962 195.18Z" fill="#FF6584"/>
<path d="M272.286 205.339C272.296 204.117 271.614 203.121 270.764 203.114C269.914 203.108 269.217 204.093 269.208 205.315C269.199 206.537 269.881 207.533 270.731 207.539C271.581 207.546 272.277 206.56 272.286 205.339Z" fill="#3F3D56"/>
<path d="M176.579 72.9505C176.772 71.6195 175.378 70.3148 173.465 70.0364C171.551 69.758 169.843 70.6113 169.65 71.9424C169.456 73.2734 170.85 74.5781 172.763 74.8565C174.677 75.1349 176.385 74.2815 176.579 72.9505Z" fill="white"/>
<path d="M199.359 70.7276C199.553 69.3966 198.159 68.0919 196.245 67.8135C194.332 67.5351 192.624 68.3885 192.43 69.7195C192.237 71.0505 193.631 72.3552 195.544 72.6336C197.457 72.912 199.165 72.0586 199.359 70.7276Z" fill="#3F3D56"/>
<path d="M170.341 54.5079C170.534 53.1769 169.14 51.8722 167.227 51.5938C165.314 51.3155 163.605 52.1688 163.412 53.4998C163.218 54.8308 164.612 56.1355 166.526 56.4139C168.439 56.6923 170.147 55.839 170.341 54.5079Z" fill="#FF6584"/>
<path d="M160.442 46.9536C160.451 45.7317 159.77 44.7359 158.92 44.7294C158.069 44.723 157.373 45.7084 157.364 46.9303C157.354 48.1522 158.036 49.148 158.886 49.1545C159.736 49.1609 160.433 48.1755 160.442 46.9536Z" fill="#E6E6E6"/>
<path d="M157.085 32.8828C157.094 31.6609 156.413 30.6651 155.563 30.6586C154.713 30.6522 154.016 31.6376 154.007 32.8595C153.997 34.0814 154.679 35.0772 155.529 35.0837C156.379 35.0901 157.076 34.1047 157.085 32.8828Z" fill="#3F3D56"/>
<path d="M183.189 57.6464C183.198 56.4245 182.517 55.4287 181.667 55.4222C180.817 55.4158 180.12 56.4012 180.111 57.6231C180.101 58.8451 180.783 59.8408 181.633 59.8473C182.483 59.8537 183.18 58.8683 183.189 57.6464Z" fill="#E6E6E6"/>
<path d="M172.18 63.1428C172.19 61.9209 171.508 60.9251 170.658 60.9187C169.808 60.9122 169.111 61.8976 169.102 63.1195C169.093 64.3415 169.775 65.3372 170.625 65.3437C171.475 65.3501 172.171 64.3647 172.18 63.1428Z" fill="#FF6584"/>
<path d="M187.505 73.3016C187.514 72.0797 186.832 71.0839 185.982 71.0775C185.132 71.0711 184.436 72.0564 184.427 73.2783C184.417 74.5003 185.099 75.4961 185.949 75.5025C186.799 75.5089 187.496 74.5235 187.505 73.3016Z" fill="#3F3D56"/>
</g>
<defs>
<clipPath id="clip0_1_207">
<rect width="284.159" height="324.561" fill="white"/>
</clipPath>
</defs>
</svg>
