<svg width="238" height="250" viewBox="0 0 238 250" fill="none" xmlns="http://www.w3.org/2000/svg">
<path d="M16.5134 139.801C8.81782 118.491 13.3385 97.2332 26.5999 92.4643C27.9382 91.981 29.3359 91.6821 30.7548 91.5759C30.385 91.3888 29.9803 91.2806 29.5665 91.2581C29.1526 91.2356 28.7386 91.2993 28.3507 91.4452C17.9637 93.9669 7.44594 98.3438 3.31724 108.979C-4.37833 128.904 6.64894 160.013 24.81 171.275C35.0272 177.586 43.5067 174.058 53.75 170.126C40.6192 174.111 24.0783 160.771 16.5134 139.801Z" fill="#FFE7AB"/>
<path d="M48.1709 97.038C39.3125 89.9565 29.6832 90.1133 28.1676 90.649C18.6037 92.9747 7.04074 97.1818 2.55928 108.679C-5.28001 128.787 5.70806 160.419 24.3787 171.969C34.3607 178.136 42.5527 175.3 53.2926 171.172C60.0344 168.559 65.6656 164.247 68.148 152.579C72.1591 133.778 63.2354 108.98 48.1709 97.038ZM21.7264 94.2159C17.8096 97.4463 14.9965 101.817 13.678 106.72L3.38241 111.279C5.70806 103.91 10.6338 98.0963 21.7264 94.2159ZM2.80753 113.292L13.1815 108.771C12.0062 113.91 11.6928 119.208 12.2539 124.449C8.63269 125.489 5.17246 127.023 1.97133 129.009C1.31811 123.762 1.60123 118.44 2.80753 113.292ZM2.14119 130.838C5.30059 128.777 8.74209 127.184 12.3584 126.109C13.0626 131.584 14.4541 136.948 16.5002 142.075L6.3744 146.373C4.34289 141.384 2.92152 136.168 2.14119 130.838ZM6.98848 147.824L17.1012 143.59C19.1608 148.507 21.8486 153.136 25.0973 157.361C21.6225 158.741 18.0272 159.795 14.3574 160.51C11.3882 156.61 8.9131 152.358 6.98848 147.85V147.824ZM15.5072 161.934C19.187 161.231 22.7856 160.154 26.247 158.72C29.2435 162.285 32.7686 165.369 36.6994 167.866C33.3298 169.224 29.8263 170.223 26.247 170.845C25.7505 170.923 26.1686 171.159 25.254 170.584C21.5623 168.252 18.2711 165.34 15.5072 161.96V161.934ZM28.1284 172.099C31.6501 171.377 35.0872 170.291 38.3849 168.859C41.2194 170.371 44.3302 171.296 47.5307 171.577C40.802 173.955 34.818 175.144 28.1284 172.125V172.099ZM66.5671 152.214C64.7249 160.876 60.3218 166.847 54.1941 169.055C41.7166 173.55 28.4812 161.02 21.8309 149.457C14.4881 136.444 10.9473 118.701 15.7946 105.413C21.256 90.7143 34.7135 88.4279 47.1518 98.3054C61.7329 109.868 70.4345 134.04 66.5671 152.24V152.214Z" fill="#EFAC54"/>
<path d="M48.3018 126.187C45.4927 130.237 39.3911 128.656 38.0584 124.371C38.003 124.156 37.8645 123.972 37.6734 123.859C37.4822 123.746 37.2542 123.714 37.0393 123.769C36.8245 123.825 36.6405 123.963 36.5278 124.155C36.4151 124.346 36.3829 124.574 36.4383 124.789C36.9972 126.455 38.0996 127.885 39.5686 128.849C41.0376 129.813 42.7881 130.256 44.5389 130.106C50.7581 129.296 52.6787 121.614 48.8375 117.485C48.0797 116.753 46.9169 117.903 47.6877 118.635C47.7661 118.778 50.8365 122.28 48.3018 126.187Z" fill="#5E503B"/>
<path d="M56.6501 149.326L53.5275 150.92C53.1355 149.613 52.7696 148.307 52.4169 146.909L57.1597 144.583C58.1004 144.126 57.2903 142.715 56.3496 143.185L51.9988 145.302L51.45 143.107C52.6777 139.211 54.2609 135.437 56.1797 131.831C56.6893 130.903 55.2782 130.093 54.7817 131.008C52.9483 134.5 51.4142 138.141 50.1958 141.892C46.7882 140.302 43.2992 138.893 39.7434 137.671C38.7504 137.332 38.3192 138.886 39.3122 139.292V139.213C42.8704 140.464 46.3595 141.903 49.7646 143.525L50.3917 146.059L44.5384 148.973C43.5977 149.43 44.4208 150.828 45.3746 150.371L50.9144 147.653C51.2802 148.96 51.6591 150.358 52.0641 151.691L47.9877 153.755C47.047 154.251 47.8701 155.636 48.7977 155.166L52.5345 153.272C52.9656 154.67 53.3968 156.055 53.841 157.453C54.1546 158.446 55.7617 158.014 55.4611 157.021C55.0039 155.519 54.4812 154.016 54.0239 152.501L57.4994 150.75C58.4139 150.28 57.6039 148.855 56.6501 149.326Z" fill="#EFAC54"/>
<path d="M169.393 11.0137C158.13 1.46284 144.986 1.2538 130.941 1.58043H130.275C154.942 1.58043 171.967 21.636 171.967 44.2785C171.967 67.8617 153.779 86.9503 131.294 86.9503H129.765C130.077 87.1283 130.426 87.2311 130.784 87.2509C144.607 87.5906 158.914 86.676 169.811 77.2296C174.485 73.0627 178.219 67.948 180.763 62.2258C183.306 56.5036 184.602 50.3052 184.564 44.0432C184.526 37.7812 183.154 31.5992 180.54 25.9085C177.927 20.2179 174.131 15.1492 169.406 11.0399L169.393 11.0137Z" fill="#FFE7AB"/>
<path d="M131.293 1.58136C153.727 1.58136 171.914 20.7092 171.914 44.2271C171.914 67.745 153.727 86.9643 131.293 86.9643C108.86 86.9643 90.6858 67.8495 90.6858 44.2271C90.6858 20.6047 108.873 1.58136 131.293 1.58136Z" fill="white"/>
<path d="M93.7959 44.1478C93.7959 54.4706 97.6957 64.3706 104.637 71.6699C111.579 78.9692 120.994 83.0699 130.81 83.0699C140.627 83.0699 150.042 78.9692 156.984 71.6699C163.925 64.3706 167.825 54.4706 167.825 44.1478C167.825 39.0365 166.868 33.9752 165.007 29.253C163.147 24.5307 160.421 20.24 156.984 16.6257C153.547 13.0115 149.466 10.1445 144.975 8.18848C140.485 6.23246 135.671 5.22571 130.81 5.22571C125.95 5.22571 121.136 6.23246 116.646 8.18848C112.155 10.1445 108.074 13.0115 104.637 16.6257C101.2 20.24 98.4736 24.5307 96.6135 29.253C94.7533 33.9752 93.7959 39.0365 93.7959 44.1478Z" fill="#FFFDA9"/>
<path d="M130.771 83.8804C109.866 83.8804 92.8809 66.0591 92.8809 44.1482C92.8809 22.2374 109.866 4.40302 130.771 4.40302C151.676 4.40302 168.661 22.2374 168.661 44.1482C168.661 66.0591 151.676 83.8804 130.771 83.8804ZM130.771 6.0362C110.807 6.0362 94.5663 23.1259 94.5663 44.1482C94.5663 65.1706 110.846 82.2603 130.771 82.2603C150.696 82.2603 167.014 65.1314 167.014 44.1482C167.014 23.1651 150.774 6.0362 130.771 6.0362Z" fill="#5E503B"/>
<path d="M135.697 45.4424C134.935 44.4458 133.98 43.6128 132.889 42.9933C131.798 42.3737 130.593 41.9803 129.347 41.8364L129.53 39.0012C129.52 38.7872 129.43 38.5849 129.277 38.4347C129.125 38.2845 128.921 38.1975 128.707 38.1911C128.492 38.1911 128.286 38.2764 128.134 38.4284C127.982 38.5803 127.897 38.7863 127.897 39.0012L127.727 41.8233C123.245 42.2675 119.404 46.6183 121.05 51.2043C121.457 52.286 122.078 53.2749 122.875 54.112C123.671 54.9492 124.628 55.6177 125.689 56.0778C128.066 57.1753 130.562 57.3843 132.483 59.4356C133.301 60.3545 133.887 61.4567 134.191 62.6492C134.495 63.8418 134.508 65.09 134.229 66.2886C133.949 67.4872 133.386 68.6012 132.587 69.5368C131.787 70.4724 130.775 71.2022 129.634 71.6649C125.819 73.1021 120.214 70.9724 120.136 66.4387C120.136 66.2239 120.05 66.0178 119.898 65.8659C119.747 65.714 119.541 65.6286 119.326 65.6286C119.111 65.6286 118.905 65.714 118.753 65.8659C118.601 66.0178 118.516 66.2239 118.516 66.4387C118.668 68.2633 119.455 69.977 120.739 71.2825C122.023 72.5879 123.723 73.4027 125.545 73.5855L125.336 76.3554C125.336 76.5715 125.421 76.7789 125.572 76.9329C125.724 77.0869 125.93 77.1751 126.146 77.1785C126.362 77.1751 126.568 77.0869 126.719 76.9329C126.871 76.7789 126.956 76.5715 126.956 76.3554L127.165 73.7423C128.939 73.7024 130.662 73.1476 132.126 72.1454C133.59 71.1433 134.731 69.737 135.409 68.098C136.25 66.0146 136.308 63.6974 135.573 61.5744C134.838 59.4513 133.36 57.666 131.411 56.5481C129.033 55.2416 126.277 55.0717 124.186 53.1772C123.282 52.3816 122.669 51.3063 122.447 50.1224C122.224 48.9385 122.404 47.7142 122.958 46.6445C123.726 45.3665 124.908 44.3897 126.308 43.8763C127.708 43.3629 129.241 43.3439 130.653 43.8223C133.267 44.6193 135.88 47.0756 134.978 50.0154C134.665 51.0214 136.285 51.4395 136.598 50.4465C136.822 49.5971 136.857 48.7091 136.701 47.8447C136.546 46.9803 136.203 46.1604 135.697 45.4424Z" fill="#EFAC54"/>
<path d="M135.553 22.2765C135.683 24.5081 134.927 26.701 133.449 28.3781C129.66 32.2977 123.925 28.5741 124.617 22.9167C125.305 23.7259 126.171 24.3644 127.148 24.7818C128.124 25.1992 129.184 25.3841 130.245 25.3221C131.305 25.26 132.336 24.9526 133.257 24.4241C134.178 23.8956 134.964 23.1604 135.553 22.2765Z" fill="white"/>
<path d="M129.726 30.7949C125.454 30.7949 123.389 26.2481 123.807 22.8249C123.828 22.6714 123.892 22.5268 123.991 22.408C124.091 22.2891 124.222 22.2007 124.369 22.1529C124.517 22.1051 124.674 22.0999 124.825 22.1379C124.975 22.1759 125.111 22.2555 125.218 22.3676C125.824 23.085 126.588 23.6519 127.45 24.0237C128.312 24.3955 129.249 24.562 130.186 24.51C131.123 24.4581 132.036 24.1892 132.852 23.7244C133.667 23.2597 134.364 22.6118 134.887 21.8319C134.98 21.6877 135.117 21.5768 135.277 21.5154C135.438 21.454 135.614 21.4452 135.78 21.4902C135.945 21.5353 136.092 21.632 136.2 21.7662C136.307 21.9004 136.369 22.0653 136.376 22.237C136.611 26.3265 134.038 30.7949 129.726 30.7949ZM134.56 24.5365C133.266 25.5655 131.669 26.1397 130.016 26.1704C128.363 26.2011 126.746 25.6866 125.414 24.7063C126.368 30.7295 133.123 30.6773 134.56 24.5365Z" fill="#5E503B"/>
<path d="M173.992 14.4243C162.233 1.21511 148.423 0.496506 130.876 0.770882C108.56 1.11058 89.8631 20.147 89.8631 44.2267C89.8631 67.1044 106.848 86.8463 130.758 88.0092C145.195 88.375 159.502 87.2252 170.36 77.7789C179.219 69.845 184.575 58.7248 185.256 46.8515C185.937 34.9783 181.887 23.3188 173.992 14.4243ZM183.686 42.3845C180.028 42.1144 176.365 41.8923 172.698 41.7181C172.579 39.4871 172.29 37.2684 171.836 35.0809L183.033 36.3874C183.392 38.3685 183.61 40.3725 183.686 42.3845ZM180.59 28.0124C181.459 30.1656 182.154 32.3852 182.667 34.6497L171.47 33.3431C170.924 31.1141 170.207 28.9302 169.327 26.8104C173.038 26.9406 176.735 27.3203 180.394 27.9471C180.449 28.001 180.516 28.0413 180.59 28.0647V28.0124ZM176.579 20.3952C177.805 22.2456 178.884 24.1896 179.806 26.2094C176.091 25.6193 172.342 25.2701 168.583 25.1642C167.535 22.9299 166.307 20.7844 164.911 18.749C173.417 19.4807 175.899 20.5912 176.579 20.4475V20.3952ZM169.902 12.556C171.846 14.3797 173.617 16.3784 175.194 18.5269C171.354 17.7782 167.47 17.2764 163.566 17.0244C162.16 15.199 160.613 13.4865 158.94 11.9027C170.399 12.765 169.602 12.765 169.968 12.5821L169.902 12.556ZM162.533 7.32976C164.48 8.38797 166.33 9.61657 168.06 11.0012C156.458 10.1388 157.229 10.178 157.046 10.2172C155.253 8.75618 153.344 7.4452 151.336 6.29758C162.246 7.30363 162.037 7.55187 162.533 7.29056V7.32976ZM158.026 5.30461C152.381 4.70359 148.488 4.14178 147.887 4.44228C146.228 3.65088 144.517 2.97424 142.765 2.41713C147.967 2.59229 153.111 3.55256 158.026 5.26541V5.30461ZM91.4963 44.2267C91.4963 21.1792 109.357 2.41713 131.294 2.41713C153.231 2.41713 171.104 21.1792 171.104 44.2267C171.104 67.2742 153.244 86.1538 131.294 86.1538C109.344 86.1538 91.4963 67.3657 91.4963 44.2267ZM142.125 86.2192C143.996 85.688 145.826 85.0198 147.6 84.2202C149.772 84.4115 151.954 84.4551 154.132 84.3508C150.203 85.3859 146.181 86.0292 142.125 86.2714V86.2192ZM160.195 82.2995C160.1 82.2237 159.991 82.1683 159.874 82.1368C159.757 82.1053 159.635 82.0985 159.515 82.1166C156.568 82.6121 153.579 82.8222 150.591 82.7438C153.649 81.0453 155.308 79.6211 154.877 80.1307C158.927 79.7561 162.956 79.2117 166.963 78.4975C164.851 80.0103 162.582 81.2894 160.195 82.3126V82.2995ZM169.706 76.211C169.38 76.211 164.663 77.3085 157.294 78.1316C159.027 76.6889 160.643 75.1118 162.128 73.415C166.182 73.0757 170.207 72.4557 174.175 71.5597C172.806 73.2263 171.313 74.7856 169.706 76.2241V76.211ZM175.586 69.6129C175.445 69.5733 175.296 69.5733 175.155 69.6129C171.311 70.492 167.426 71.1766 163.513 71.6642C164.914 69.8526 166.172 67.9349 167.276 65.9285C167.642 66.1767 166.884 66.1898 178.722 64.6219C177.787 66.3569 176.74 68.0285 175.586 69.626V69.6129ZM179.584 62.832L168.06 64.3737C169.037 62.4218 169.867 60.3998 170.543 58.3244H170.647C174.192 58.8468 177.789 58.8995 181.348 58.4812C180.838 59.9663 180.249 61.423 179.584 62.845V62.832ZM181.909 56.7565C178.305 57.2845 174.643 57.2845 171.039 56.7565C171.61 54.7584 172.046 52.7243 172.346 50.668C175.965 50.877 179.623 50.9293 183.255 50.8117C182.949 52.8272 182.499 54.8182 181.909 56.7696V56.7565ZM172.581 49.0348C172.775 47.1469 172.854 45.2488 172.816 43.3513C176.474 43.5081 180.128 43.7302 183.778 44.0177C183.789 45.7372 183.701 47.4559 183.517 49.1655C179.819 49.2961 176.161 49.2439 172.581 49.0348Z" fill="#5E503B"/>
<path d="M194.544 132.34C207.72 146.258 221.984 159.103 237.203 170.753C221.575 177.914 207.918 188.76 197.402 202.359C186.887 215.958 179.826 231.905 176.827 248.832C160.273 240.575 140.57 227.378 123.99 219.121C124.852 218.559 136.546 163.762 194.544 132.34Z" fill="#DCE28F"/>
<path d="M237.607 170.126C222.461 158.506 208.25 145.715 195.105 131.871C194.983 131.737 194.818 131.651 194.639 131.628C194.46 131.604 194.278 131.643 194.125 131.74C177.17 140.902 162.186 153.317 150.033 168.275C137.88 183.233 128.795 200.441 123.297 218.913C123.249 218.999 123.219 219.093 123.209 219.191C123.199 219.289 123.21 219.388 123.241 219.482C123.271 219.575 123.321 219.661 123.387 219.734C123.454 219.807 123.534 219.866 123.624 219.906C141.916 229.052 159.241 241.007 176.435 249.604C176.543 249.657 176.661 249.687 176.781 249.692C176.902 249.697 177.022 249.677 177.134 249.632C177.246 249.588 177.347 249.521 177.431 249.435C177.516 249.349 177.581 249.246 177.624 249.133C180.589 232.298 187.599 216.435 198.049 202.907C208.5 189.38 222.08 178.592 237.62 171.472C238.221 171.237 238.025 170.44 237.607 170.126ZM176.2 247.748C158.653 238.903 141.511 227.144 125.009 218.848C136.021 182.34 160.931 151.617 194.374 133.295C207.172 146.783 220.998 159.259 235.726 170.61C220.415 177.849 207.039 188.614 196.694 202.023C186.349 215.432 179.33 231.102 176.213 247.748H176.2Z" fill="#6E7028"/>
<path d="M223.432 166.546C220.905 164.627 218.549 162.493 216.389 160.17C209.203 152.709 202.017 148.633 196.477 141.512C196.402 141.436 196.313 141.376 196.214 141.335C196.115 141.294 196.009 141.273 195.903 141.273C195.796 141.273 195.69 141.294 195.591 141.335C195.493 141.376 195.403 141.436 195.328 141.512C193.368 143.459 190.271 143.916 188.468 141.512C188.354 141.329 188.175 141.195 187.966 141.139C187.757 141.084 187.535 141.11 187.345 141.212C159.646 156.067 143.484 181.323 131.163 210.459C131.103 210.567 131.069 210.688 131.062 210.812C131.055 210.935 131.077 211.059 131.125 211.173C131.172 211.287 131.245 211.389 131.338 211.472C131.43 211.554 131.54 211.614 131.66 211.648C134.887 212.38 135.501 215.999 134.913 218.755C134.873 218.927 134.887 219.107 134.952 219.27C135.018 219.434 135.132 219.573 135.279 219.67C140.923 223.08 163.565 236.028 169.053 239.425C169.168 239.477 169.293 239.505 169.419 239.506C169.545 239.507 169.67 239.481 169.786 239.431C169.902 239.38 170.006 239.306 170.091 239.213C170.176 239.119 170.241 239.009 170.281 238.889C170.627 237.919 171.187 237.039 171.92 236.315C172.653 235.591 173.54 235.042 174.514 234.708C175.181 234.421 175.233 234.029 175.455 233.402C181.406 214.909 192.429 198.458 207.27 185.922C212.096 181.934 217.239 178.347 222.648 175.195C222.831 175.084 222.963 174.906 223.017 174.698C223.07 174.491 223.041 174.271 222.935 174.085C222.289 173.141 221.982 172.006 222.062 170.865C222.143 169.724 222.607 168.644 223.379 167.8C223.474 167.727 223.551 167.634 223.605 167.527C223.66 167.421 223.691 167.304 223.696 167.185C223.701 167.066 223.68 166.947 223.634 166.836C223.588 166.726 223.519 166.627 223.432 166.546ZM173.783 233.18C171.767 233.963 170.114 235.467 169.144 237.4C168.752 237.152 136.781 218.494 136.651 218.416C137.056 215.202 136.232 211.4 132.992 210.211C137.346 199.712 142.592 189.606 148.671 180.003C158.405 164.638 171.588 151.442 187.475 142.871C187.99 143.435 188.61 143.891 189.301 144.215C189.992 144.538 190.74 144.722 191.502 144.756C192.264 144.79 193.026 144.673 193.743 144.413C194.46 144.152 195.118 143.752 195.68 143.237C201.103 149.887 206.904 153.036 215.37 161.529C217.306 163.578 219.394 165.478 221.615 167.212C220.928 168.199 220.517 169.351 220.422 170.55C220.328 171.748 220.555 172.95 221.08 174.032C198.52 187.207 181.663 208.297 173.783 233.206V233.18Z" fill="#5E503B"/>
<path d="M187.736 183.648C183.542 177.024 174.671 174.359 168.295 179.062L165.028 176.293C164.872 176.148 164.667 176.068 164.454 176.068C164.241 176.068 164.035 176.148 163.879 176.293C163.725 176.447 163.638 176.656 163.638 176.874C163.638 177.092 163.725 177.301 163.879 177.455L167.041 180.068C166.154 180.953 165.425 181.983 164.885 183.113L161.736 180.787C161.643 180.733 161.541 180.699 161.435 180.685C161.329 180.671 161.221 180.678 161.118 180.706C161.015 180.734 160.918 180.782 160.834 180.847C160.749 180.913 160.678 180.995 160.625 181.088C160.572 181.179 160.537 181.28 160.524 181.385C160.51 181.49 160.517 181.597 160.545 181.699C160.573 181.802 160.621 181.897 160.687 181.981C160.752 182.064 160.833 182.133 160.926 182.185L164.271 184.668C161.801 192.716 168.87 199.863 177.232 200.895C178.264 201.025 178.695 199.484 177.676 199.262C169.236 198.334 164.284 191.644 165.643 185.674L168.661 188.078C168.843 188.184 169.06 188.215 169.265 188.164C169.47 188.112 169.647 187.983 169.758 187.803C169.814 187.711 169.852 187.608 169.868 187.501C169.884 187.395 169.878 187.286 169.851 187.181C169.824 187.076 169.777 186.978 169.712 186.892C169.646 186.806 169.564 186.734 169.471 186.68L166.126 184.21C166.636 183.096 167.36 182.093 168.256 181.257L171.169 183.714C171.244 183.791 171.333 183.853 171.432 183.895C171.53 183.937 171.637 183.959 171.744 183.959C171.852 183.959 171.958 183.937 172.057 183.895C172.155 183.853 172.245 183.791 172.319 183.714C172.469 183.56 172.553 183.354 172.553 183.139C172.553 182.924 172.469 182.718 172.319 182.564L169.549 180.225C175.468 176.201 182.837 178.919 186.325 184.472C186.874 185.334 188.259 184.472 187.736 183.648Z" fill="#5E503B"/>
<path d="M192.597 164.26C191.386 163.641 190.363 162.709 189.637 161.559C188.911 160.41 188.507 159.086 188.468 157.727C187.85 159.276 187.335 160.865 186.926 162.483C184.94 168.428 189.944 172.439 194.622 170.322C196.845 169.279 198.832 167.795 200.462 165.958C197.742 166.033 195.044 165.451 192.597 164.26Z" fill="white"/>
<path d="M192.179 171.733C186.835 171.733 184.744 166.663 186.221 162.247C186.578 160.722 187.081 159.234 187.723 157.805C187.723 157.674 187.723 156.969 188.507 156.943C188.721 156.939 188.928 157.019 189.084 157.165C189.24 157.312 189.333 157.513 189.343 157.727C189.387 158.937 189.752 160.114 190.402 161.136C191.052 162.158 191.963 162.988 193.041 163.541C195.369 164.67 197.927 165.243 200.514 165.213C200.664 165.218 200.809 165.264 200.934 165.346C201.059 165.428 201.158 165.543 201.222 165.678C201.285 165.813 201.31 165.964 201.294 166.112C201.277 166.261 201.22 166.402 201.129 166.52C199.435 168.449 197.357 170.002 195.027 171.08C194.133 171.492 193.163 171.714 192.179 171.733ZM194.348 169.642C195.924 168.911 197.378 167.942 198.659 166.768C196.451 166.575 194.297 165.972 192.309 164.991C190.53 164.074 189.139 162.549 188.39 160.692C188.169 161.349 187.981 162.016 187.828 162.692C185.933 168.074 190.271 171.419 194.282 169.655L194.348 169.642Z" fill="#5E503B"/>
<path d="M75.2031 31.0436C71.9713 28.7407 68.251 27.2159 64.3326 26.5882C63.9997 26.4784 63.6485 26.4352 63.2989 26.4612C62.9494 26.4871 62.6084 26.5816 62.2954 26.7393C61.9823 26.8971 61.7035 27.1149 61.4746 27.3804C61.2458 27.6459 61.0715 27.9539 60.9617 28.2867C60.8519 28.6196 60.8087 28.9708 60.8346 29.3204C60.8606 29.6699 60.9551 30.0109 61.1128 30.324C61.2705 30.637 61.4884 30.9159 61.7539 31.1447C62.0194 31.3735 62.3273 31.5478 62.6602 31.6576C45.3484 35.4205 29.6568 48.9694 24.7703 67.0129C24.6295 67.6884 24.751 68.3923 25.1101 68.9816C25.4692 69.5709 26.0391 70.0015 26.7041 70.186C27.369 70.3705 28.0793 70.2952 28.6907 69.9752C29.3022 69.6552 29.769 69.1147 29.9965 68.4631C32.3925 60.4011 36.9716 53.1587 43.2273 47.5371C49.4831 41.9154 57.1718 38.1334 65.4432 36.6095C64.4502 37.2758 63.4311 37.916 62.3989 38.5432C61.7752 38.9053 61.3208 39.5003 61.1358 40.1974C60.9508 40.8945 61.0503 41.6365 61.4125 42.2603C61.7746 42.884 62.3696 43.3384 63.0667 43.5233C63.7638 43.7083 64.5058 43.6088 65.1296 43.2467C68.9496 40.9995 72.5117 38.34 75.7518 35.316C76.0395 35.0186 76.2566 34.6604 76.387 34.2677C76.5173 33.8751 76.5577 33.4581 76.505 33.0478C76.4523 32.6374 76.3079 32.2442 76.0825 31.8973C75.8571 31.5503 75.5566 31.2585 75.2031 31.0436Z" fill="#FFAAD7"/>
<path d="M227.181 112.559C226.634 112.247 225.997 112.133 225.376 112.235C224.756 112.338 224.189 112.65 223.771 113.121C225.767 104.213 225.308 94.9303 222.443 86.2627C219.578 77.5951 214.415 69.8673 207.504 63.903C206.99 63.4207 206.307 63.1575 205.602 63.169C204.897 63.1805 204.224 63.4658 203.725 63.9646C203.226 64.4634 202.941 65.1366 202.929 65.8419C202.918 66.5473 203.181 67.2294 203.663 67.7442V67.8357C210.104 73.3307 214.886 80.5116 217.473 88.5728C220.06 96.6341 220.35 105.257 218.31 113.473C218.114 112.363 217.918 110.377 217.865 110.246C217.865 109.526 217.579 108.834 217.069 108.325C216.56 107.815 215.868 107.529 215.148 107.529C214.427 107.529 213.736 107.815 213.226 108.325C212.716 108.834 212.43 109.526 212.43 110.246C212.925 114.684 213.862 119.06 215.226 123.312C215.342 123.709 215.546 124.075 215.823 124.382C216.1 124.689 216.444 124.93 216.827 125.085C217.21 125.241 217.624 125.308 218.037 125.282C218.449 125.255 218.851 125.136 219.211 124.932C222.841 122.83 225.925 119.903 228.213 116.387C228.407 116.071 228.534 115.718 228.587 115.351C228.64 114.983 228.617 114.609 228.52 114.251C228.424 113.893 228.255 113.558 228.025 113.267C227.795 112.976 227.508 112.735 227.181 112.559Z" fill="#FFA02E"/>
<path d="M102.027 225.419C100.72 221.147 94.9063 225.746 82.076 222.27C71.2662 219.508 61.8467 212.874 55.6053 203.626C56.7159 204.318 57.8003 205.037 58.8717 205.795C59.4932 206.153 60.2309 206.253 60.9253 206.072C61.6196 205.891 62.2149 205.444 62.5823 204.828C62.9309 204.204 63.0249 203.47 62.8448 202.778C62.6646 202.087 62.2241 201.492 61.6155 201.117C58.1927 198.675 54.5282 196.591 50.6797 194.898C50.3152 194.697 49.9105 194.58 49.4951 194.556C49.0797 194.531 48.6641 194.599 48.2785 194.756C47.8929 194.912 47.5471 195.153 47.2663 195.46C46.9855 195.767 46.7768 196.133 46.6555 196.531C45.7592 200.654 45.8532 204.93 46.9299 209.009C47.0292 209.712 47.4 210.348 47.9628 210.782C48.5256 211.215 49.2356 211.411 49.9409 211.327C50.6462 211.243 51.2908 210.887 51.7365 210.334C52.1823 209.781 52.3938 209.076 52.3259 208.369C57.7312 215.737 65.0231 221.512 73.434 225.085C81.8449 228.658 91.0635 229.897 100.119 228.672C100.795 228.479 101.37 228.034 101.725 227.428C102.08 226.822 102.188 226.103 102.027 225.419Z" fill="#51BDBF"/>
<path d="M23.1375 122.293C23.1375 123.6 23.6564 124.853 24.5802 125.776C25.5039 126.7 26.7568 127.219 28.0632 127.219C29.3695 127.219 30.6224 126.7 31.5462 125.776C32.4699 124.853 32.9888 123.6 32.9888 122.293C32.9888 121.647 32.8614 121.006 32.6139 120.408C32.3664 119.811 32.0035 119.268 31.5462 118.81C31.0888 118.353 30.5458 117.99 29.9481 117.743C29.3505 117.495 28.71 117.368 28.0632 117.368C27.4163 117.368 26.7758 117.495 26.1782 117.743C25.5806 117.99 25.0376 118.353 24.5802 118.81C24.1228 119.268 23.76 119.811 23.5124 120.408C23.2649 121.006 23.1375 121.647 23.1375 122.293Z" fill="#FFCECC"/>
<path d="M47.5044 111.723C47.5044 113.029 48.0233 114.282 48.9471 115.206C49.8708 116.13 51.1237 116.649 52.4301 116.649C53.7364 116.649 54.9893 116.13 55.9131 115.206C56.8368 114.282 57.3558 113.029 57.3558 111.723C57.3558 110.417 56.8368 109.164 55.9131 108.24C54.9893 107.316 53.7364 106.797 52.4301 106.797C51.1237 106.797 49.8708 107.316 48.9471 108.24C48.0233 109.164 47.5044 110.417 47.5044 111.723Z" fill="#FFCECC"/>
<path d="M27.8538 117.393C27.8538 117.727 27.9197 118.059 28.0477 118.368C28.1757 118.677 28.3634 118.958 28.6 119.194C28.8366 119.431 29.1174 119.619 29.4265 119.747C29.7356 119.875 30.0669 119.941 30.4015 119.941C30.7361 119.941 31.0674 119.875 31.3765 119.747C31.6856 119.619 31.9665 119.431 32.2031 119.194C32.4397 118.958 32.6273 118.677 32.7554 118.368C32.8834 118.059 32.9493 117.727 32.9493 117.393C32.9493 116.717 32.6809 116.069 32.2031 115.591C31.7253 115.113 31.0772 114.845 30.4015 114.845C29.7258 114.845 29.0778 115.113 28.6 115.591C28.1222 116.069 27.8538 116.717 27.8538 117.393Z" fill="#5E503B"/>
<path d="M44.8521 109.659C44.8521 110.335 45.1206 110.983 45.5984 111.46C46.0762 111.938 46.7242 112.207 47.3999 112.207C48.0756 112.207 48.7236 111.938 49.2014 111.46C49.6792 110.983 49.9477 110.335 49.9477 109.659C49.9477 108.983 49.6792 108.335 49.2014 107.857C48.7236 107.38 48.0756 107.111 47.3999 107.111C46.7242 107.111 46.0762 107.38 45.5984 107.857C45.1206 108.335 44.8521 108.983 44.8521 109.659Z" fill="#5E503B"/>
<path d="M106.953 21.8332C106.953 23.3994 107.575 24.9015 108.682 26.009C109.79 27.1166 111.292 27.7388 112.858 27.7388C114.424 27.7388 115.927 27.1166 117.034 26.009C118.142 24.9015 118.764 23.3994 118.764 21.8332C118.764 21.0576 118.611 20.2897 118.314 19.5732C118.017 18.8567 117.582 18.2056 117.034 17.6573C116.486 17.1089 115.835 16.6739 115.118 16.3771C114.402 16.0803 113.634 15.9276 112.858 15.9276C112.083 15.9276 111.315 16.0803 110.598 16.3771C109.882 16.6739 109.231 17.1089 108.682 17.6573C108.134 18.2056 107.699 18.8567 107.402 19.5732C107.105 20.2897 106.953 21.0576 106.953 21.8332Z" fill="#EFAC54"/>
<path d="M141.654 23.0213C141.654 23.7969 141.807 24.5648 142.104 25.2813C142.401 25.9978 142.836 26.6488 143.384 27.1972C143.933 27.7456 144.584 28.1806 145.3 28.4774C146.017 28.7742 146.785 28.9269 147.56 28.9269C148.336 28.9269 149.104 28.7742 149.82 28.4774C150.537 28.1806 151.188 27.7456 151.736 27.1972C152.284 26.6488 152.719 25.9978 153.016 25.2813C153.313 24.5648 153.466 23.7969 153.466 23.0213C153.466 22.2458 153.313 21.4778 153.016 20.7613C152.719 20.0448 152.284 19.3938 151.736 18.8454C151.188 18.297 150.537 17.862 149.82 17.5653C149.104 17.2685 148.336 17.1157 147.56 17.1157C146.785 17.1157 146.017 17.2685 145.3 17.5653C144.584 17.862 143.933 18.297 143.384 18.8454C142.836 19.3938 142.401 20.0448 142.104 20.7613C141.807 21.4778 141.654 22.2458 141.654 23.0213Z" fill="#EFAC54"/>
<path d="M114.648 17.4431C114.648 18.254 114.97 19.0316 115.544 19.605C116.117 20.1783 116.895 20.5005 117.705 20.5005C118.516 20.5005 119.294 20.1783 119.867 19.605C120.441 19.0316 120.763 18.254 120.763 17.4431C120.763 16.6323 120.441 15.8546 119.867 15.2813C119.294 14.7079 118.516 14.3858 117.705 14.3858C116.895 14.3858 116.117 14.7079 115.544 15.2813C114.97 15.8546 114.648 16.6323 114.648 17.4431Z" fill="#5E503B"/>
<path d="M139.865 18.4479C139.865 19.2587 140.187 20.0364 140.76 20.6097C141.334 21.1831 142.111 21.5052 142.922 21.5052C143.733 21.5052 144.511 21.1831 145.084 20.6097C145.657 20.0364 145.979 19.2587 145.979 18.4479C145.979 17.637 145.657 16.8594 145.084 16.286C144.511 15.7127 143.733 15.3906 142.922 15.3906C142.111 15.3906 141.334 15.7127 140.76 16.286C140.187 16.8594 139.865 17.637 139.865 18.4479Z" fill="#5E503B"/>
<path d="M179.819 151.625C179.819 152.294 179.95 152.956 180.207 153.575C180.463 154.193 180.838 154.755 181.311 155.228C181.784 155.701 182.346 156.076 182.964 156.332C183.582 156.588 184.245 156.72 184.914 156.72C185.583 156.72 186.246 156.588 186.864 156.332C187.482 156.076 188.044 155.701 188.517 155.228C188.99 154.755 189.366 154.193 189.622 153.575C189.878 152.956 190.01 152.294 190.01 151.625C190.01 150.956 189.878 150.293 189.622 149.675C189.366 149.057 188.99 148.495 188.517 148.022C188.044 147.548 187.482 147.173 186.864 146.917C186.246 146.661 185.583 146.529 184.914 146.529C184.245 146.529 183.582 146.661 182.964 146.917C182.346 147.173 181.784 147.548 181.311 148.022C180.838 148.495 180.463 149.057 180.207 149.675C179.95 150.293 179.819 150.956 179.819 151.625Z" fill="#C1C69B"/>
<path d="M207.008 165.396C208.016 165.393 209.003 165.69 209.842 166.248C210.682 166.806 211.337 167.601 211.725 168.532C212.112 169.463 212.215 170.488 212.02 171.477C211.825 172.467 211.341 173.376 210.629 174.09C209.917 174.804 209.009 175.29 208.02 175.488C207.031 175.686 206.006 175.585 205.074 175.2C204.142 174.815 203.346 174.162 202.785 173.324C202.225 172.485 201.925 171.5 201.925 170.491C201.925 169.142 202.46 167.848 203.413 166.893C204.366 165.938 205.659 165.399 207.008 165.396Z" fill="#C1C69B"/>
<path d="M190.519 148.49C190.002 148.49 189.497 148.643 189.067 148.93C188.638 149.217 188.303 149.625 188.105 150.103C187.907 150.58 187.855 151.106 187.956 151.613C188.057 152.119 188.306 152.585 188.671 152.95C189.037 153.316 189.503 153.565 190.009 153.666C190.516 153.766 191.042 153.715 191.519 153.517C191.997 153.319 192.405 152.984 192.692 152.554C192.979 152.125 193.132 151.62 193.132 151.103C193.132 150.41 192.857 149.745 192.367 149.255C191.877 148.765 191.212 148.49 190.519 148.49Z" fill="#5E503B"/>
<path d="M206.198 162.299C205.681 162.299 205.176 162.452 204.746 162.739C204.316 163.027 203.982 163.435 203.784 163.912C203.586 164.39 203.534 164.915 203.635 165.422C203.736 165.929 203.985 166.394 204.35 166.76C204.716 167.125 205.181 167.374 205.688 167.475C206.195 167.576 206.72 167.524 207.198 167.326C207.675 167.129 208.083 166.794 208.371 166.364C208.658 165.934 208.811 165.429 208.811 164.912C208.811 164.219 208.536 163.554 208.046 163.064C207.556 162.574 206.891 162.299 206.198 162.299Z" fill="#5E503B"/>
</svg>
